999
dxflib 3.26.4.0
  0
SECTION
  2
HEADER
  9
$ACADVER
  1
AC1015
  9
$HANDSEED
  5
FFFF
  9
$DIMADEC
 70
0
  9
$DIMASZ
 40
0.18
  9
$DIMATFIT
 70
0
  9
$DIMAUNIT
 70
0
  9
$DIMAZIN
 70
0
  9
$DIMBLK
  1
0
  9
$DIMBLK1
  1
0
  9
$DIMBLK2
  1
0
  9
$DIMDEC
 70
4
  9
$DIMDLI
 40
0.36
  9
$DIMDSEP
 70
0
  9
$DIMEXE
 40
0.18
  9
$DIMEXO
 40
0.0625
  9
$DIMGAP
 40
0.09
  9
$DIMLFAC
 40
0.0
  9
$DIMLUNIT
 70
2
  9
$DIMSCALE
 40
0.0
  9
$DIMTAD
 70
0
  9
$DIMTIH
 70
0
  9
$DIMTSZ
 40
0.0
  9
$DIMTXT
 40
0.18
  9
$DIMZIN
 70
0
  9
$DWGCODEPAGE
  3
ANSI_1252
  9
$INSUNITS
 70
4
  9
$LTSCALE
 40
1.0
  9
$MAXACTVP
 70
64
  9
$MEASUREMENT
 70
1
  9
$MIRRTEXT
 70
0
  9
$PDMODE
 70
0
  9
$PDSIZE
 40
0.0
  0
ENDSEC
  0
SECTION
  2
TABLES
  0
TABLE
  2
VPORT
  5
8
100
AcDbSymbolTable
 70
1
  0
VPORT
  5
30
100
AcDbSymbolTableRecord
100
AcDbViewportTableRecord
  2
*Active
 70
0
 10
0.0
 20
0.0
 11
1.0
 21
1.0
 12
286.3055555555554861
 22
148.5
 13
0.0
 23
0.0
 14
10.0
 24
10.0
 15
10.0
 25
10.0
 16
0.0
 26
0.0
 36
1.0
 17
0.0
 27
0.0
 37
0.0
 40
297.0
 41
1.92798353909465
 42
50.0
 43
0.0
 44
0.0
 50
0.0
 51
0.0
 71
0
 72
100
 73
1
 74
3
 75
1
 76
1
 77
0
 78
0
281
0
 65
1
110
0.0
120
0.0
130
0.0
111
1.0
121
0.0
131
0.0
112
0.0
122
1.0
132
0.0
 79
0
146
0.0
  0
ENDTAB
  0
TABLE
  2
LTYPE
  5
5
100
AcDbSymbolTable
 70
41
  0
LTYPE
  5
16
100
AcDbSymbolTableRecord
100
AcDbLinetypeTableRecord
  2
Continuous
 70
0
  3
Solid line
 72
65
 73
0
 40
0.0
  0
LTYPE
  5
31
100
AcDbSymbolTableRecord
100
AcDbLinetypeTableRecord
  2
CENTER
 70
0
  3
Center ____ _ ____ _ ____ _ ____ _ ____ _ ____
 72
65
 73
4
 40
50.8000000000000043
 49
31.75
 74
0
 49
-6.3499999999999996
 74
0
 49
6.3499999999999996
 74
0
 49
-6.3499999999999996
 74
0
  0
LTYPE
  5
32
100
AcDbSymbolTableRecord
100
AcDbLinetypeTableRecord
  2
ACAD_ISO12W100
 70
0
  3
ISO dash double-dot __ . . __ . . __ . . __ . . 
 72
65
 73
6
 40
21.0
 49
12.0
 74
0
 49
-3.0
 74
0
 49
0.0
 74
0
 49
-3.0
 74
0
 49
0.0
 74
0
 49
-3.0
 74
0
  0
LTYPE
  5
33
100
AcDbSymbolTableRecord
100
AcDbLinetypeTableRecord
  2
PHANTOM
 70
0
  3
Phantom ______  __  __  ______  __  __  ______ 
 72
65
 73
6
 40
63.5000000000000071
 49
31.75
 74
0
 49
-6.3499999999999996
 74
0
 49
6.3499999999999996
 74
0
 49
-6.3499999999999996
 74
0
 49
6.3499999999999996
 74
0
 49
-6.3499999999999996
 74
0
  0
LTYPE
  5
34
100
AcDbSymbolTableRecord
100
AcDbLinetypeTableRecord
  2
DOT
 70
0
  3
Dot . . . . . . . . . . . . . . . . . . . . . . . .
 72
65
 73
2
 40
6.3499999999999996
 49
0.0
 74
0
 49
-6.3499999999999996
 74
0
  0
LTYPE
  5
35
100
AcDbSymbolTableRecord
100
AcDbLinetypeTableRecord
  2
DASHED
 70
0
  3
Dashed __ __ __ __ __ __ __ __ __ __ __ __ __ _
 72
65
 73
2
 40
19.0499999999999972
 49
12.6999999999999993
 74
0
 49
-6.3499999999999996
 74
0
  0
LTYPE
  5
36
100
AcDbSymbolTableRecord
100
AcDbLinetypeTableRecord
  2
ACAD_ISO14W100
 70
0
  3
ISO dash triple-dot __ . . . __ . . . __ . . . _
 72
65
 73
8
 40
24.0
 49
12.0
 74
0
 49
-3.0
 74
0
 49
0.0
 74
0
 49
-3.0
 74
0
 49
0.0
 74
0
 49
-3.0
 74
0
 49
0.0
 74
0
 49
-3.0
 74
0
  0
LTYPE
  5
37
100
AcDbSymbolTableRecord
100
AcDbLinetypeTableRecord
  2
DASHDOT2
 70
0
  3
Dash dot (.5x) _._._._._._._._._._._._._._._.
 72
65
 73
4
 40
12.6999999999999993
 49
6.3499999999999996
 74
0
 49
-3.1749999999999998
 74
0
 49
0.0
 74
0
 49
-3.1749999999999998
 74
0
  0
LTYPE
  5
38
100
AcDbSymbolTableRecord
100
AcDbLinetypeTableRecord
  2
ACAD_ISO11W100
 70
0
  3
ISO double-dash dot __ __ . __ __ . __ __ . __ _
 72
65
 73
6
 40
33.0
 49
12.0
 74
0
 49
-3.0
 74
0
 49
12.0
 74
0
 49
-3.0
 74
0
 49
0.0
 74
0
 49
-3.0
 74
0
  0
LTYPE
  5
39
100
AcDbSymbolTableRecord
100
AcDbLinetypeTableRecord
  2
DIVIDE
 70
0
  3
Divide ____ . . ____ . . ____ . . ____ . . ____
 72
65
 73
6
 40
31.75
 49
12.6999999999999993
 74
0
 49
-6.3499999999999996
 74
0
 49
0.0
 74
0
 49
-6.3499999999999996
 74
0
 49
0.0
 74
0
 49
-6.3499999999999996
 74
0
  0
LTYPE
  5
3A
100
AcDbSymbolTableRecord
100
AcDbLinetypeTableRecord
  2
DOT2
 70
0
  3
Dot (.5x) ........................................
 72
65
 73
2
 40
3.1749999999999998
 49
0.0
 74
0
 49
-3.1749999999999998
 74
0
  0
LTYPE
  5
3B
100
AcDbSymbolTableRecord
100
AcDbLinetypeTableRecord
  2
BORDERX2
 70
0
  3
Border (2x) ____  ____  .  ____  ____  .  ___
 72
65
 73
6
 40
88.8999999999999915
 49
25.3999999999999986
 74
0
 49
-12.6999999999999993
 74
0
 49
25.3999999999999986
 74
0
 49
-12.6999999999999993
 74
0
 49
0.0
 74
0
 49
-12.6999999999999993
 74
0
  0
LTYPE
  5
3C
100
AcDbSymbolTableRecord
100
AcDbLinetypeTableRecord
  2
ACAD_ISO07W100
 70
0
  3
ISO dot . . . . . . . . . . . . . . . . . . . . 
 72
65
 73
2
 40
3.0
 49
0.0
 74
0
 49
-3.0
 74
0
  0
LTYPE
  5
3D
100
AcDbSymbolTableRecord
100
AcDbLinetypeTableRecord
  2
CENTER2
 70
0
  3
Center (.5x) ___ _ ___ _ ___ _ ___ _ ___ _ ___
 72
65
 73
4
 40
28.5750000000000028
 49
19.0500000000000007
 74
0
 49
-3.1749999999999998
 74
0
 49
3.1749999999999998
 74
0
 49
-3.1749999999999998
 74
0
  0
LTYPE
  5
3E
100
AcDbSymbolTableRecord
100
AcDbLinetypeTableRecord
  2
ACAD_ISO04W100
 70
0
  3
ISO long-dash dot ____ . ____ . ____ . ____ . _
 72
65
 73
4
 40
30.0
 49
24.0
 74
0
 49
-3.0
 74
0
 49
0.0
 74
0
 49
-3.0
 74
0
  0
LTYPE
  5
3F
100
AcDbSymbolTableRecord
100
AcDbLinetypeTableRecord
  2
ACAD_ISO08W100
 70
0
  3
ISO long-dash short-dash ____ __ ____ __ ____ _
 72
65
 73
4
 40
36.0
 49
24.0
 74
0
 49
-3.0
 74
0
 49
6.0
 74
0
 49
-3.0
 74
0
  0
LTYPE
  5
40
100
AcDbSymbolTableRecord
100
AcDbLinetypeTableRecord
  2
BORDER2
 70
0
  3
Border (.5x) __.__.__.__.__.__.__.__.__.__.__.
 72
65
 73
6
 40
22.2249999999999979
 49
6.3499999999999996
 74
0
 49
-3.1749999999999998
 74
0
 49
6.3499999999999996
 74
0
 49
-3.1749999999999998
 74
0
 49
0.0
 74
0
 49
-3.1749999999999998
 74
0
  0
LTYPE
  5
41
100
AcDbSymbolTableRecord
100
AcDbLinetypeTableRecord
  2
ACAD_ISO13W100
 70
0
  3
ISO double-dash double-dot __ __ . . __ __ . . _
 72
65
 73
8
 40
36.0
 49
12.0
 74
0
 49
-3.0
 74
0
 49
12.0
 74
0
 49
-3.0
 74
0
 49
0.0
 74
0
 49
-3.0
 74
0
 49
0.0
 74
0
 49
-3.0
 74
0
  0
LTYPE
  5
42
100
AcDbSymbolTableRecord
100
AcDbLinetypeTableRecord
  2
DOTX2
 70
0
  3
Dot (2x) .  .  .  .  .  .  .  .  .  .  .  .  .  .
 72
65
 73
2
 40
12.6999999999999993
 49
0.0
 74
0
 49
-12.6999999999999993
 74
0
  0
LTYPE
  5
43
100
AcDbSymbolTableRecord
100
AcDbLinetypeTableRecord
  2
ACAD_ISO02W100
 70
0
  3
ISO dash __ __ __ __ __ __ __ __ __ __ __ __ __
 72
65
 73
2
 40
15.0
 49
12.0
 74
0
 49
-3.0
 74
0
  0
LTYPE
  5
44
100
AcDbSymbolTableRecord
100
AcDbLinetypeTableRecord
  2
DASHDOT
 70
0
  3
Dash dot __ . __ . __ . __ . __ . __ . __ . __
 72
65
 73
4
 40
25.3999999999999986
 49
12.6999999999999993
 74
0
 49
-6.3499999999999996
 74
0
 49
0.0
 74
0
 49
-6.3499999999999996
 74
0
  0
LTYPE
  5
45
100
AcDbSymbolTableRecord
100
AcDbLinetypeTableRecord
  2
DASHEDX2
 70
0
  3
Dashed (2x) ____  ____  ____  ____  ____  ___
 72
65
 73
2
 40
38.0999999999999943
 49
25.3999999999999986
 74
0
 49
-12.6999999999999993
 74
0
  0
LTYPE
  5
46
100
AcDbSymbolTableRecord
100
AcDbLinetypeTableRecord
  2
ACAD_ISO15W100
 70
0
  3
ISO double-dash triple-dot __ __ . . . __ __ . .
 72
65
 73
10
 40
39.0
 49
12.0
 74
0
 49
-3.0
 74
0
 49
12.0
 74
0
 49
-3.0
 74
0
 49
0.0
 74
0
 49
-3.0
 74
0
 49
0.0
 74
0
 49
-3.0
 74
0
 49
0.0
 74
0
 49
-3.0
 74
0
  0
LTYPE
  5
47
100
AcDbSymbolTableRecord
100
AcDbLinetypeTableRecord
  2
ACAD_ISO03W100
 70
0
  3
ISO dash space __    __    __    __    __    __
 72
65
 73
2
 40
30.0
 49
12.0
 74
0
 49
-18.0
 74
0
  0
LTYPE
  5
48
100
AcDbSymbolTableRecord
100
AcDbLinetypeTableRecord
  2
DIVIDEX2
 70
0
  3
Divide (2x) ________  .  .  ________  .  .  _
 72
65
 73
6
 40
63.5
 49
25.3999999999999986
 74
0
 49
-12.6999999999999993
 74
0
 49
0.0
 74
0
 49
-12.6999999999999993
 74
0
 49
0.0
 74
0
 49
-12.6999999999999993
 74
0
  0
LTYPE
  5
49
100
AcDbSymbolTableRecord
100
AcDbLinetypeTableRecord
  2
HIDDEN2
 70
0
  3
Hidden (.5x) _ _ _ _ _ _ _ _ _ _ _ _ _ _ _ _ _ 
 72
65
 73
2
 40
4.7624999999999993
 49
3.1749999999999998
 74
0
 49
-1.5874999999999999
 74
0
  0
LTYPE
  5
4A
100
AcDbSymbolTableRecord
100
AcDbLinetypeTableRecord
  2
CENTERX2
 70
0
  3
Center (2x) ________  __  ________  __  _____
 72
65
 73
4
 40
101.6000000000000085
 49
63.5
 74
0
 49
-12.6999999999999993
 74
0
 49
12.6999999999999993
 74
0
 49
-12.6999999999999993
 74
0
  0
LTYPE
  5
4B
100
AcDbSymbolTableRecord
100
AcDbLinetypeTableRecord
  2
DIVIDE2
 70
0
  3
Divide (.5x) __..__..__..__..__..__..__..__.._
 72
65
 73
6
 40
15.875
 49
6.3499999999999996
 74
0
 49
-3.1749999999999998
 74
0
 49
0.0
 74
0
 49
-3.1749999999999998
 74
0
 49
0.0
 74
0
 49
-3.1749999999999998
 74
0
  0
LTYPE
  5
14
100
AcDbSymbolTableRecord
100
AcDbLinetypeTableRecord
  2
BYBLOCK
 70
0
  3

 72
65
 73
0
 40
0.0
  0
LTYPE
  5
4C
100
AcDbSymbolTableRecord
100
AcDbLinetypeTableRecord
  2
PHANTOMX2
 70
0
  3
Phantom (2x) ____________    ____    ____   _
 72
65
 73
6
 40
127.0000000000000142
 49
63.5
 74
0
 49
-12.6999999999999993
 74
0
 49
12.6999999999999993
 74
0
 49
-12.6999999999999993
 74
0
 49
12.6999999999999993
 74
0
 49
-12.6999999999999993
 74
0
  0
LTYPE
  5
4D
100
AcDbSymbolTableRecord
100
AcDbLinetypeTableRecord
  2
ACAD_ISO09W100
 70
0
  3
ISO long-dash double-short-dash ____ __ __ ____
 72
65
 73
6
 40
45.0
 49
24.0
 74
0
 49
-3.0
 74
0
 49
6.0
 74
0
 49
-3.0
 74
0
 49
6.0
 74
0
 49
-3.0
 74
0
  0
LTYPE
  5
4E
100
AcDbSymbolTableRecord
100
AcDbLinetypeTableRecord
  2
DASHDOTX2
 70
0
  3
Dash dot (2x) ____  .  ____  .  ____  .  ___
 72
65
 73
4
 40
50.7999999999999972
 49
25.3999999999999986
 74
0
 49
-12.6999999999999993
 74
0
 49
0.0
 74
0
 49
-12.6999999999999993
 74
0
  0
LTYPE
  5
4F
100
AcDbSymbolTableRecord
100
AcDbLinetypeTableRecord
  2
ACAD_ISO05W100
 70
0
  3
ISO long-dash double-dot ____ .. ____ .. ____ . 
 72
65
 73
6
 40
33.0
 49
24.0
 74
0
 49
-3.0
 74
0
 49
0.0
 74
0
 49
-3.0
 74
0
 49
0.0
 74
0
 49
-3.0
 74
0
  0
LTYPE
  5
15
100
AcDbSymbolTableRecord
100
AcDbLinetypeTableRecord
  2
BYLAYER
 70
0
  3

 72
65
 73
0
 40
0.0
  0
LTYPE
  5
50
100
AcDbSymbolTableRecord
100
AcDbLinetypeTableRecord
  2
BORDER
 70
0
  3
Border __ __ . __ __ . __ __ . __ __ . __ __ .
 72
65
 73
6
 40
44.4499999999999957
 49
12.6999999999999993
 74
0
 49
-6.3499999999999996
 74
0
 49
12.6999999999999993
 74
0
 49
-6.3499999999999996
 74
0
 49
0.0
 74
0
 49
-6.3499999999999996
 74
0
  0
LTYPE
  5
51
100
AcDbSymbolTableRecord
100
AcDbLinetypeTableRecord
  2
HIDDEN
 70
0
  3
Hidden __ __ __ __ __ __ __ __ __ __ __ __ __ __
 72
65
 73
2
 40
9.5249999999999986
 49
6.3499999999999996
 74
0
 49
-3.1749999999999998
 74
0
  0
LTYPE
  5
52
100
AcDbSymbolTableRecord
100
AcDbLinetypeTableRecord
  2
DASHED2
 70
0
  3
Dashed (.5x) _ _ _ _ _ _ _ _ _ _ _ _ _ _ _ _ _ 
 72
65
 73
2
 40
9.5249999999999986
 49
6.3499999999999996
 74
0
 49
-3.1749999999999998
 74
0
  0
LTYPE
  5
53
100
AcDbSymbolTableRecord
100
AcDbLinetypeTableRecord
  2
HIDDENX2
 70
0
  3
Hidden (2x) ____ ____ ____ ____ ____ ____ ____ 
 72
65
 73
2
 40
19.0499999999999972
 49
12.6999999999999993
 74
0
 49
-6.3499999999999996
 74
0
  0
LTYPE
  5
54
100
AcDbSymbolTableRecord
100
AcDbLinetypeTableRecord
  2
ACAD_ISO10W100
 70
0
  3
ISO dash dot __ . __ . __ . __ . __ . __ . __ . 
 72
65
 73
4
 40
18.0
 49
12.0
 74
0
 49
-3.0
 74
0
 49
0.0
 74
0
 49
-3.0
 74
0
  0
LTYPE
  5
55
100
AcDbSymbolTableRecord
100
AcDbLinetypeTableRecord
  2
PHANTOM2
 70
0
  3
Phantom (.5x) ___ _ _ ___ _ _ ___ _ _ ___ _ _
 72
65
 73
6
 40
31.7500000000000036
 49
15.875
 74
0
 49
-3.1749999999999998
 74
0
 49
3.1749999999999998
 74
0
 49
-3.1749999999999998
 74
0
 49
3.1749999999999998
 74
0
 49
-3.1749999999999998
 74
0
  0
LTYPE
  5
56
100
AcDbSymbolTableRecord
100
AcDbLinetypeTableRecord
  2
ACAD_ISO06W100
 70
0
  3
ISO long-dash triple-dot ____ ... ____ ... ____
 72
65
 73
8
 40
36.0
 49
24.0
 74
0
 49
-3.0
 74
0
 49
0.0
 74
0
 49
-3.0
 74
0
 49
0.0
 74
0
 49
-3.0
 74
0
 49
0.0
 74
0
 49
-3.0
 74
0
  0
ENDTAB
  0
TABLE
  2
LAYER
  5
2
100
AcDbSymbolTable
 70
1
  0
LAYER
  5
10
100
AcDbSymbolTableRecord
100
AcDbLayerTableRecord
  2
0
 70
0
 62
7
  6
Continuous
370
5
390
F
  0
ENDTAB
  0
TABLE
  2
STYLE
  5
3
100
AcDbSymbolTable
 70
1
  0
STYLE
  5
57
100
AcDbSymbolTableRecord
100
AcDbTextStyleTableRecord
  2
Standard
 70
0
 40
0.0
 41
1.0
 50
0.0
 71
0
 42
2.5
  3

  4

1001
ACAD
1000
txt
1071
0
  0
ENDTAB
  0
TABLE
  2
VIEW
  5
6
100
AcDbSymbolTable
 70
0
  0
ENDTAB
  0
TABLE
  2
UCS
  5
7
100
AcDbSymbolTable
 70
0
  0
ENDTAB
  0
TABLE
  2
APPID
  5
9
100
AcDbSymbolTable
 70
1
  0
APPID
  5
12
100
AcDbSymbolTableRecord
100
AcDbRegAppTableRecord
  2
ACAD
 70
0
  0
APPID
  5
58
100
AcDbSymbolTableRecord
100
AcDbRegAppTableRecord
  2
QCAD
 70
0
  0
ENDTAB
  0
TABLE
  2
DIMSTYLE
  5
A
100
AcDbSymbolTable
 70
1
100
AcDbDimStyleTable
 71
0
  0
DIMSTYLE
105
27
100
AcDbSymbolTableRecord
100
AcDbDimStyleTableRecord
  2
Standard
 41
0.18
 42
0.0625
 43
3.75
 44
0.18
 70
0
 73
0
 74
0
 77
0
 78
8
140
0.18
141
2.5
143
0.03937007874016
147
0.09
171
3
172
1
271
2
272
2
274
3
278
44
283
0
284
8
340
57
  0
ENDTAB
  0
TABLE
  2
BLOCK_RECORD
  5
1
100
AcDbSymbolTable
 70
1
  0
BLOCK_RECORD
  5
1F
100
AcDbSymbolTableRecord
100
AcDbBlockTableRecord
  2
*Model_Space
340
22
  0
BLOCK_RECORD
  5
1B
100
AcDbSymbolTableRecord
100
AcDbBlockTableRecord
  2
*Paper_Space
340
1E
  0
BLOCK_RECORD
  5
23
100
AcDbSymbolTableRecord
100
AcDbBlockTableRecord
  2
*Paper_Space0
340
26
  0
ENDTAB
  0
ENDSEC
  0
SECTION
  2
BLOCKS
  0
BLOCK
  5
20
100
AcDbEntity
  8
0
100
AcDbBlockBegin
  2
*Model_Space
 70
0
 10
0.0
 20
0.0
 30
0.0
  3
*Model_Space
  1

  0
ENDBLK
  5
21
100
AcDbEntity
  8
0
100
AcDbBlockEnd
  0
BLOCK
  5
1C
100
AcDbEntity
 67
1
  8
0
100
AcDbBlockBegin
  2
*Paper_Space
 70
0
 10
0.0
 20
0.0
 30
0.0
  3
*Paper_Space
  1

  0
ENDBLK
  5
1D
100
AcDbEntity
 67
1
  8
0
100
AcDbBlockEnd
  0
BLOCK
  5
24
100
AcDbEntity
  8
0
100
AcDbBlockBegin
  2
*Paper_Space0
 70
0
 10
0.0
 20
0.0
 30
0.0
  3
*Paper_Space0
  1

  0
ENDBLK
  5
25
100
AcDbEntity
  8
0
100
AcDbBlockEnd
  0
ENDSEC
  0
SECTION
  2
ENTITIES
  0
CIRCLE
  5
59
100
AcDbEntity
  8
0
 62
256
370
-1
 48
1.0
  6
BYLAYER
100
AcDbCircle
 10
230.4889500730629379
 20
104.8623413582887309
 30
0.0
 40
1.5000000000000031
  0
CIRCLE
  5
5A
100
AcDbEntity
  8
0
 62
256
370
-1
 48
1.0
  6
BYLAYER
100
AcDbCircle
 10
153.9620537100644242
 20
127.077951084089392
 30
0.0
 40
1.5000000000000036
  0
CIRCLE
  5
5B
100
AcDbEntity
  8
0
 62
256
370
-1
 48
1.0
  6
BYLAYER
100
AcDbCircle
 10
194.3916076698372422
 20
19.6845858966856895
 30
0.0
 40
1.5000000000000036
  0
CIRCLE
  5
5C
100
AcDbEntity
  8
0
 62
256
370
-1
 48
1.0
  6
BYLAYER
100
AcDbCircle
 10
291.3655460378989233
 20
104.3476371694381157
 30
0.0
 40
1.5000000000000036
  0
CIRCLE
  5
5D
100
AcDbEntity
  8
0
 62
256
370
-1
 48
1.0
  6
BYLAYER
100
AcDbCircle
 10
151.9079808994429186
 20
29.492703961620208
 30
0.0
 40
1.5000000000000036
  0
CIRCLE
  5
5E
100
AcDbEntity
  8
0
 62
256
370
-1
 48
1.0
  6
BYLAYER
100
AcDbCircle
 10
241.9839334474190196
 20
8.6970317329568836
 30
0.0
 40
1.5000000000000036
  0
CIRCLE
  5
5F
100
AcDbEntity
  8
0
 62
256
370
-1
 48
1.0
  6
BYLAYER
100
AcDbCircle
 10
291.365546037898639
 20
34.3476371694378457
 30
0.0
 40
1.5000000000000036
  0
ARC
  5
60
100
AcDbEntity
  8
0
 62
256
370
-1
 48
1.0
  6
BYLAYER
100
AcDbCircle
 10
147.2766061302908156
 20
112.0514446017151613
 30
0.0
 40
3.9999999999999658
100
AcDbArc
 50
127.9031987724157347
 51
163.0000000000003979
  0
LINE
  5
61
100
AcDbEntity
  8
0
 62
256
370
-1
 48
1.0
  6
BYLAYER
100
AcDbLine
 10
143.4513871064386876
 20
113.2209314206060782
 30
0.0
 11
134.1903833475948318
 21
82.9295530262000398
 31
0.0
  0
ARC
  5
62
100
AcDbEntity
  8
0
 62
256
370
-1
 48
1.0
  6
BYLAYER
100
AcDbCircle
 10
139.9282118833729953
 20
81.1753227978636289
 30
0.0
 40
5.9999999999999298
100
AcDbArc
 50
162.9999999999999432
 51
252.9999999999992326
  0
LINE
  5
63
100
AcDbEntity
  8
0
 62
256
370
-1
 48
1.0
  6
BYLAYER
100
AcDbLine
 10
138.1739816550364992
 20
75.437494262085437
 30
0.0
 11
159.212686286223402
 21
69.0053167581851596
 31
0.0
  0
LINE
  5
64
100
AcDbEntity
  8
0
 62
256
370
-1
 48
1.0
  6
BYLAYER
100
AcDbLine
 10
159.212686286223402
 20
69.0053167581851596
 30
0.0
 11
147.4225891689678463
 21
30.441646730027454
 31
0.0
  0
SPLINE
  5
65
100
AcDbEntity
  8
0
 62
256
370
-1
 48
1.0
  6
BYLAYER
100
AcDbSpline
 70
8
 71
3
 72
16
 73
12
 74
0
 40
0.0
 40
0.0
 40
0.0
 40
0.0
 40
0.2817157271521926
 40
0.2817157271521926
 40
0.450898605107605
 40
0.450898605107605
 40
0.590262828437113
 40
0.590262828437113
 40
0.7187581703014544
 40
0.7187581703014544
 40
0.8663558200253347
 40
0.8663558200253347
 40
0.8663558200253347
 40
0.8663558200253347
 10
147.4225891689678463
 20
30.441646730027454
 30
0.0
 10
147.1480368109854453
 20
29.5436264310100398
 30
0.0
 10
146.9434082926856888
 20
28.553627653640703
 30
0.0
 10
146.9853712794454452
 20
27.047616768634235
 30
0.0
 10
147.0844903786577333
 20
26.4877756690708139
 30
0.0
 10
147.4985213222670666
 20
25.5432237225617769
 30
0.0
 10
147.7613936115147339
 20
25.1698666329680236
 30
0.0
 10
148.4107984184491613
 20
24.5535399174417712
 30
0.0
 10
148.7703470341000411
 20
24.3176302991983562
 30
0.0
 10
149.5992189570427513
 20
23.9122233220345137
 30
0.0
 10
150.0778406024602987
 20
23.7574004947302626
 30
0.0
 10
150.5582745733797196
 20
23.6464835729088207
 30
0.0
  0
LINE
  5
66
100
AcDbEntity
  8
0
 62
256
370
-1
 48
1.0
  6
BYLAYER
100
AcDbLine
 10
150.5582745733797196
 20
23.6464835729088172
 30
0.0
 11
154.1395178436711149
 21
22.8196884171160441
 31
0.0
  0
ARC
  5
67
100
AcDbEntity
  8
0
 62
256
370
-1
 48
1.0
  6
BYLAYER
100
AcDbCircle
 10
155.0393220610465335
 20
26.7171686762569571
 30
0.0
 40
3.9999999999999671
100
AcDbArc
 50
257.0000000000005116
 51
292.0968012298500867
  0
ARC
  5
68
100
AcDbEntity
  8
0
 62
256
370
-1
 48
1.0
  6
BYLAYER
100
AcDbCircle
 10
159.1772199495690074
 20
16.5251227057876164
 30
0.0
 40
6.9999999999999618
100
AcDbArc
 50
41.9031987701505315
 51
112.0968012298496177
  0
ARC
  5
69
100
AcDbEntity
  8
0
 62
256
370
-1
 48
1.0
  6
BYLAYER
100
AcDbCircle
 10
167.3642368161685283
 20
23.8717379009652291
 30
0.0
 40
4.0000000000000266
100
AcDbArc
 50
221.9031987701503681
 51
256.9999999999997158
  0
LINE
  5
6A
100
AcDbEntity
  8
0
 62
256
370
-1
 48
1.0
  6
BYLAYER
100
AcDbLine
 10
166.4644325987930529
 20
19.9742576418242948
 30
0.0
 11
240.6342271213558206
 21
2.8508113442454963
 31
0.0
  0
SPLINE
  5
6B
100
AcDbEntity
  8
0
 62
256
370
-1
 48
1.0
  6
BYLAYER
100
AcDbSpline
 70
8
 71
2
 72
6
 73
3
 74
0
 40
-0.9286180615183898
 40
-0.9286180615183898
 40
-0.9286180615183898
 40
0.0
 40
0.0
 40
0.0
 10
240.6342271213558206
 20
2.8508113442454963
 30
0.0
 10
246.4804475100672789
 20
1.5011050181822938
 30
0.0
 10
247.4190543003086304
 20
7.4272350617531213
 30
0.0
  0
LINE
  5
6C
100
AcDbEntity
  8
0
 62
256
370
-1
 48
1.0
  6
BYLAYER
100
AcDbLine
 10
247.4190543003085736
 20
7.4272350617531213
 30
0.0
 11
250.7325204794985893
 21
28.3476371694380269
 31
0.0
  0
LINE
  5
6D
100
AcDbEntity
  8
0
 62
256
370
-1
 48
1.0
  6
BYLAYER
100
AcDbLine
 10
250.7325204794985893
 20
28.3476371694380269
 30
0.0
 11
291.3655460378986959
 21
28.3476371694378315
 31
0.0
  0
ARC
  5
6E
100
AcDbEntity
  8
0
 62
256
370
-1
 48
1.0
  6
BYLAYER
100
AcDbCircle
 10
291.365546037898639
 20
34.3476371694378457
 30
0.0
 40
6.0000000000000142
100
AcDbArc
 50
270.0000000000005116
 51
360.0
  0
LINE
  5
6F
100
AcDbEntity
  8
0
 62
256
370
-1
 48
1.0
  6
BYLAYER
100
AcDbLine
 10
297.365546037898639
 20
34.3476371694378315
 30
0.0
 11
297.3655460378986959
 21
38.0230818491010183
 31
0.0
  0
ARC
  5
70
100
AcDbEntity
  8
0
 62
256
370
-1
 48
1.0
  6
BYLAYER
100
AcDbCircle
 10
293.3655460378986959
 20
38.0230818491010396
 30
0.0
 40
4.0000000000000213
100
AcDbArc
 50
0.0
 51
35.0968012275853667
  0
ARC
  5
71
100
AcDbEntity
  8
0
 62
256
370
-1
 48
1.0
  6
BYLAYER
100
AcDbCircle
 10
302.3655460378988096
 20
44.3476371694378457
 30
0.0
 40
7.0000000000000977
100
AcDbArc
 50
144.9031987724154362
 51
215.0968012275839385
  0
ARC
  5
72
100
AcDbEntity
  8
0
 62
256
370
-1
 48
1.0
  6
BYLAYER
100
AcDbCircle
 10
293.3655460378986959
 20
50.6721924897746945
 30
0.0
 40
4.0000000000000302
100
AcDbArc
 50
324.9031987724152941
 51
360.0
  0
LINE
  5
73
100
AcDbEntity
  8
0
 62
256
370
-1
 48
1.0
  6
BYLAYER
100
AcDbLine
 10
297.3655460378987527
 20
50.6721924897746661
 30
0.0
 11
297.3655460378988664
 21
88.0230818491013025
 31
0.0
  0
ARC
  5
74
100
AcDbEntity
  8
0
 62
256
370
-1
 48
1.0
  6
BYLAYER
100
AcDbCircle
 10
293.3655460378989233
 20
88.0230818491013025
 30
0.0
 40
3.9999999999999147
100
AcDbArc
 50
0.0
 51
35.0968012275844572
  0
ARC
  5
75
100
AcDbEntity
  8
0
 62
256
370
-1
 48
1.0
  6
BYLAYER
100
AcDbCircle
 10
302.3655460378990369
 20
94.3476371694380305
 30
0.0
 40
7.0000000000000515
100
AcDbArc
 50
144.9031987724160331
 51
215.0968012275839385
  0
ARC
  5
76
100
AcDbEntity
  8
0
 62
256
370
-1
 48
1.0
  6
BYLAYER
100
AcDbCircle
 10
293.3655460378988664
 20
100.6721924897748295
 30
0.0
 40
4.0000000000001137
100
AcDbArc
 50
324.9031987724152941
 51
360.0
  0
LINE
  5
77
100
AcDbEntity
  8
0
 62
256
370
-1
 48
1.0
  6
BYLAYER
100
AcDbLine
 10
297.3655460378989233
 20
100.6721924897747726
 30
0.0
 11
297.3655460378989801
 21
104.3476371694380305
 31
0.0
  0
ARC
  5
78
100
AcDbEntity
  8
0
 62
256
370
-1
 48
1.0
  6
BYLAYER
100
AcDbCircle
 10
291.3655460378989233
 20
104.3476371694381157
 30
0.0
 40
6.0000000000000497
100
AcDbArc
 50
0.0
 51
89.9999999999994742
  0
LINE
  5
79
100
AcDbEntity
  8
0
 62
256
370
-1
 48
1.0
  6
BYLAYER
100
AcDbLine
 10
291.3655460378989801
 20
110.3476371694381299
 30
0.0
 11
250.8655460378991506
 21
110.3476371694382863
 31
0.0
  0
SPLINE
  5
7A
100
AcDbEntity
  8
0
 62
256
370
-1
 48
1.0
  6
BYLAYER
100
AcDbSpline
 70
8
 71
2
 72
6
 73
3
 74
0
 40
0.0
 40
0.0
 40
0.0
 40
3.8821274901529192
 40
3.8821274901529192
 40
3.8821274901529192
 10
250.8655460378991506
 20
110.3476371694382863
 30
0.0
 10
229.2062665048615315
 20
110.3476371694383715
 30
0.0
 10
212.6164169182014518
 20
115.4196631888646749
 30
0.0
  0
LINE
  5
7B
100
AcDbEntity
  8
0
 62
256
370
-1
 48
1.0
  6
BYLAYER
100
AcDbLine
 10
212.6164169182015939
 20
115.4196631888646749
 30
0.0
 11
155.716283938400835
 21
132.815779619867584
 31
0.0
  0
ARC
  5
7C
100
AcDbEntity
  8
0
 62
256
370
-1
 48
1.0
  6
BYLAYER
100
AcDbCircle
 10
153.9620537100644242
 20
127.077951084089392
 30
0.0
 40
5.9999999999999805
100
AcDbArc
 50
73.0000000000000284
 51
163.0000000000001421
  0
LINE
  5
7D
100
AcDbEntity
  8
0
 62
256
370
-1
 48
1.0
  6
BYLAYER
100
AcDbLine
 10
148.2242251742862038
 20
128.8321813124258028
 30
0.0
 11
147.1496291476789509
 21
125.3173360849847882
 31
0.0
  0
ARC
  5
7E
100
AcDbEntity
  8
0
 62
256
370
-1
 48
1.0
  6
BYLAYER
100
AcDbCircle
 10
150.9748481715309936
 20
124.1478492660938429
 30
0.0
 40
3.9999999999998996
100
AcDbArc
 50
162.9999999999996021
 51
198.0968012275849333
  0
ARC
  5
7F
100
AcDbEntity
  8
0
 62
256
370
-1
 48
1.0
  6
BYLAYER
100
AcDbCircle
 10
140.5189843472436735
 20
120.7309922764091112
 30
0.0
 40
6.9999999999999529
100
AcDbArc
 50
-52.0968012275849901
 51
18.0968012275846917
  0
CIRCLE
  5
80
100
AcDbEntity
  8
0
 62
256
370
-1
 48
1.0
  6
BYLAYER
100
AcDbCircle
 10
207.9933218447610557
 20
125.8535272373686098
 30
0.0
 40
2.9999999999999898
  0
LWPOLYLINE
  5
81
100
AcDbEntity
  8
0
 62
256
370
-1
 48
1.0
  6
BYLAYER
100
AcDbPolyline
 90
38
 70
1
 10
283.3381680267619913
 20
272.3322166220485769
 10
249.8675015680556157
 20
282.5652262873445011
 42
0.4142135623731152
 10
246.7458104163412145
 20
280.9053936592436571
 10
241.1907480266091284
 20
262.735603295945964
 42
-0.4142135623730818
 10
239.3177333355805558
 20
261.7397037190854689
 10
199.4390501939169553
 20
273.9318406916603408
 42
0.4348123749609347
 10
196.2721957701470501
 20
272.1034564376124081
 10
195.2135132603571037
 20
267.5177986879304513
 10
188.3929228068604118
 20
269.0924560683374693
 10
181.4194401222005411
 20
238.8869840599953136
 10
188.2400305756972614
 20
237.3123266795881818
 10
186.2154710866024914
 20
228.5429960965209943
 10
179.3948806331057426
 20
230.1176534769280408
 10
172.421397948446014
 20
199.9121814685857998
 10
179.2419884019426206
 20
198.3375240881787249
 10
177.9058712409257055
 20
192.5501648400165777
 42
0.4348123749609472
 10
179.9507102402881742
 20
189.5185663526690405
 10
201.9933218447613115
 20
186.0273596504035254
 10
201.9933218447611978
 20
175.8535272373683256
 10
194.9933218447612262
 20
175.853527237368354
 10
194.9933218447611409
 20
145.8535272373687235
 10
201.9933218447610841
 20
145.8535272373687235
 10
201.9933218447611125
 20
143.3535272373686951
 42
0.4142135623730846
 10
204.4933218447610841
 20
140.8535272373686098
 10
261.493321844761283
 20
140.8535272373682403
 42
0.4142135623731034
 10
263.9933218447613399
 20
143.3535272373682687
 10
263.993321844761283
 20
145.8535272373684677
 10
270.9933218447613399
 20
145.8535272373684961
 10
270.9933218447611694
 20
175.8535272373680982
 10
263.958640542914452
 20
175.8535272373684677
 10
263.9586405429143952
 20
177.3410474899515634
 42
-0.0865726649646231
 10
268.7339829834104989
 20
216.0130730819780638
 10
268.7339122751420746
 20
216.0130894062680795
 10
270.0870437140029026
 20
220.438982916219345
 10
276.7830293908206727
 20
218.3918146522083532
 10
291.0039859140189833
 20
264.9064675334602725
 10
284.3080002372013269
 20
266.9536357974712928
 10
284.9980006548627216
 20
269.2105254703341757
 42
0.4142135623730779
  0
CIRCLE
  5
82
100
AcDbEntity
  8
0
 62
256
370
-1
 48
1.0
  6
BYLAYER
100
AcDbCircle
 10
180.1708073801363525
 20
269.0418533259232845
 30
0.0
 40
2.9999999999999987
  0
CIRCLE
  5
83
100
AcDbEntity
  8
0
 62
256
370
-1
 48
1.0
  6
BYLAYER
100
AcDbCircle
 10
257.9933218447612262
 20
125.8535272373683966
 30
0.0
 40
3.0000000000000071
  0
CIRCLE
  5
84
100
AcDbEntity
  8
0
 62
256
370
-1
 48
1.0
  6
BYLAYER
100
AcDbCircle
 10
284.3766769517322359
 20
287.7000889280237175
 30
0.0
 40
2.9999999999999898
  0
LINE
  5
85
100
AcDbEntity
  8
0
 62
256
370
-1
 48
1.0
  6
BYLAYER
100
AcDbLine
 10
201.4933218447610841
 20
128.8535272373686098
 30
0.0
 11
201.4933218447611694
 21
125.853527237368624
 31
0.0
  0
ARC
  5
86
100
AcDbEntity
  8
0
 62
256
370
-1
 48
1.0
  6
BYLAYER
100
AcDbCircle
 10
207.9933218447610557
 20
125.8535272373686098
 30
0.0
 40
6.4999999999999147
100
AcDbArc
 50
180.0
 51
359.9999987925817209
  0
LINE
  5
87
100
AcDbEntity
  8
0
 62
256
370
-1
 48
1.0
  6
BYLAYER
100
AcDbLine
 10
214.4933218447610557
 20
125.8535271003913465
 30
0.0
 11
214.4933218447610273
 21
128.8535272373686098
 31
0.0
  0
ARC
  5
88
100
AcDbEntity
  8
0
 62
256
370
-1
 48
1.0
  6
BYLAYER
100
AcDbCircle
 10
216.4933218447610841
 20
128.8535272373686098
 30
0.0
 40
1.9999999999999574
100
AcDbArc
 50
89.99999999999919
 51
180.0
  0
LINE
  5
89
100
AcDbEntity
  8
0
 62
256
370
-1
 48
1.0
  6
BYLAYER
100
AcDbLine
 10
216.4933218447611125
 20
130.8535272373685814
 30
0.0
 11
249.4933218447613115
 21
130.8535272373684961
 31
0.0
  0
ARC
  5
8A
100
AcDbEntity
  8
0
 62
256
370
-1
 48
1.0
  6
BYLAYER
100
AcDbCircle
 10
249.4933218447612262
 20
128.8535272373684961
 30
0.0
 40
1.9999999999999929
100
AcDbArc
 50
0.0
 51
89.9999999999975557
  0
LINE
  5
8B
100
AcDbEntity
  8
0
 62
256
370
-1
 48
1.0
  6
BYLAYER
100
AcDbLine
 10
251.4933218447612262
 20
128.8535272373684961
 30
0.0
 11
251.493321844761283
 21
125.8535272373683824
 31
0.0
  0
ARC
  5
8C
100
AcDbEntity
  8
0
 62
256
370
-1
 48
1.0
  6
BYLAYER
100
AcDbCircle
 10
257.9933218447612262
 20
125.8535272373683966
 30
0.0
 40
6.4999999999999147
100
AcDbArc
 50
-180.0
 51
0.0
  0
LINE
  5
8D
100
AcDbEntity
  8
0
 62
256
370
-1
 48
1.0
  6
BYLAYER
100
AcDbLine
 10
264.4933218447611694
 20
125.8535272373683966
 30
0.0
 11
264.493321844761283
 21
128.8535272373684109
 31
0.0
  0
ARC
  5
8E
100
AcDbEntity
  8
0
 62
256
370
-1
 48
1.0
  6
BYLAYER
100
AcDbCircle
 10
266.493321844761283
 20
128.8535272373684109
 30
0.0
 40
1.9999999999999929
100
AcDbArc
 50
90.0
 51
180.0
  0
LINE
  5
8F
100
AcDbEntity
  8
0
 62
256
370
-1
 48
1.0
  6
BYLAYER
100
AcDbLine
 10
266.493321844761283
 20
130.8535272373684109
 30
0.0
 11
267.9933218447613399
 21
130.8535272373684109
 31
0.0
  0
ARC
  5
90
100
AcDbEntity
  8
0
 62
256
370
-1
 48
1.0
  6
BYLAYER
100
AcDbCircle
 10
267.9933218447613967
 20
136.8535272373684109
 30
0.0
 40
5.9999999999999964
100
AcDbArc
 50
269.9999999999994316
 51
360.0
  0
LINE
  5
91
100
AcDbEntity
  8
0
 62
256
370
-1
 48
1.0
  6
BYLAYER
100
AcDbLine
 10
273.9933218447613399
 20
136.8535272373683824
 30
0.0
 11
273.9933218447615673
 21
177.3535272373681551
 31
0.0
  0
SPLINE
  5
92
100
AcDbEntity
  8
0
 62
256
370
-1
 48
1.0
  6
BYLAYER
100
AcDbSpline
 70
8
 71
3
 72
10
 73
6
 74
0
 40
0.0
 40
0.0
 40
0.0
 40
0.0
 40
3.7074409309769134
 40
3.7074409309769134
 40
7.3346637182347267
 40
7.3346637182347267
 40
7.3346637182347267
 40
7.3346637182347267
 10
273.9933218447615673
 20
177.3535272373681551
 30
0.0
 10
273.9933218447616809
 20
189.7116636739579292
 30
0.0
 10
274.1244781426825625
 20
194.587061894810887
 30
0.0
 10
275.119291919008333
 20
202.0891449746300736
 30
0.0
 10
276.1154507921208392
 20
205.953977794636927
 30
0.0
 10
279.0653478641878564
 20
215.6026563570658823
 30
0.0
  0
LINE
  5
93
100
AcDbEntity
  8
0
 62
256
370
-1
 48
1.0
  6
BYLAYER
100
AcDbLine
 10
279.0653478641878564
 20
215.6026563570658823
 30
0.0
 11
296.4614642951908081
 21
272.5027893368665559
 31
0.0
  0
ARC
  5
94
100
AcDbEntity
  8
0
 62
256
370
-1
 48
1.0
  6
BYLAYER
100
AcDbCircle
 10
290.7236357594126162
 20
274.2570195652028815
 30
0.0
 40
5.9999999999999325
100
AcDbArc
 50
-16.9999999999991971
 51
72.9999999999997726
  0
LINE
  5
95
100
AcDbEntity
  8
0
 62
256
370
-1
 48
1.0
  6
BYLAYER
100
AcDbLine
 10
292.4778659877490554
 20
279.9948481009810735
 30
0.0
 11
291.0434088538045216
 21
280.4334056580652828
 31
0.0
  0
ARC
  5
96
100
AcDbEntity
  8
0
 62
256
370
-1
 48
1.0
  6
BYLAYER
100
AcDbCircle
 10
291.6281522632498309
 20
282.3460151699913467
 30
0.0
 40
1.9999999999999618
100
AcDbArc
 50
162.9999999999993747
 51
253.0000000000044054
  0
LINE
  5
97
100
AcDbEntity
  8
0
 62
256
370
-1
 48
1.0
  6
BYLAYER
100
AcDbLine
 10
289.7155427513238237
 20
282.9307585794368265
 30
0.0
 11
290.5926578654919581
 21
285.7996728473258372
 31
0.0
  0
ARC
  5
98
100
AcDbEntity
  8
0
 62
256
370
-1
 48
1.0
  6
BYLAYER
100
AcDbCircle
 10
284.3766769517322359
 20
287.7000889280237175
 30
0.0
 40
6.5000000000000169
100
AcDbArc
 50
-17.0000000000007745
 51
162.9999999999996874
  0
LINE
  5
99
100
AcDbEntity
  8
0
 62
256
370
-1
 48
1.0
  6
BYLAYER
100
AcDbLine
 10
278.1606960379725137
 20
289.6005050087215409
 30
0.0
 11
277.2835809238043794
 21
286.7315907408324165
 31
0.0
  0
ARC
  5
9A
100
AcDbEntity
  8
0
 62
256
370
-1
 48
1.0
  6
BYLAYER
100
AcDbCircle
 10
275.3709714118782017
 20
287.3163341502779531
 30
0.0
 40
1.9999999999999956
100
AcDbArc
 50
253.0000000000013074
 51
342.9999999999991473
  0
LINE
  5
9B
100
AcDbEntity
  8
0
 62
256
370
-1
 48
1.0
  6
BYLAYER
100
AcDbLine
 10
274.7862280024327788
 20
285.4037246383518891
 30
0.0
 11
246.5752377015231787
 21
294.0286899276726444
 31
0.0
  0
ARC
  5
9C
100
AcDbEntity
  8
0
 62
256
370
-1
 48
1.0
  6
BYLAYER
100
AcDbCircle
 10
244.8210074731868531
 20
288.2908613918943388
 30
0.0
 40
6.0000000000000338
100
AcDbArc
 50
73.0000000000011227
 51
162.9999999999996874
  0
LINE
  5
9D
100
AcDbEntity
  8
0
 62
256
370
-1
 48
1.0
  6
BYLAYER
100
AcDbLine
 10
239.0831789374086895
 20
290.0450916202307781
 30
0.0
 11
232.6510014335083838
 21
269.0063869890439605
 31
0.0
  0
LINE
  5
9E
100
AcDbEntity
  8
0
 62
256
370
-1
 48
1.0
  6
BYLAYER
100
AcDbLine
 10
232.6510014335083838
 20
269.0063869890439605
 30
0.0
 11
194.0873314053506533
 21
280.7964841062995447
 31
0.0
  0
SPLINE
  5
9F
100
AcDbEntity
  8
0
 62
256
370
-1
 48
1.0
  6
BYLAYER
100
AcDbSpline
 70
8
 71
3
 72
16
 73
12
 74
0
 40
0.0
 40
0.0
 40
0.0
 40
0.0
 40
0.2817157271521826
 40
0.2817157271521826
 40
0.4508986051076055
 40
0.4508986051076055
 40
0.5902628284371243
 40
0.5902628284371243
 40
0.7187581703014526
 40
0.7187581703014526
 40
0.8663558200252858
 40
0.8663558200252858
 40
0.8663558200252858
 40
0.8663558200252858
 10
194.0873314053506533
 20
280.7964841062995447
 30
0.0
 10
193.1893111063332924
 20
281.0710364642818604
 30
0.0
 10
192.1993123289639129
 20
281.2756649825817021
 30
0.0
 10
190.6933014439574094
 20
281.2337019958220026
 30
0.0
 10
190.1334603443940807
 20
281.1345828966096292
 30
0.0
 10
189.1889083978849158
 20
280.7205519530002675
 30
0.0
 10
188.8155513082912762
 20
280.4576796637526854
 30
0.0
 10
188.1992245927649776
 20
279.8082748568181728
 30
0.0
 10
187.9633149745215803
 20
279.4487262411673214
 30
0.0
 10
187.5579079973576881
 20
278.6198543182245544
 30
0.0
 10
187.4030851700534583
 20
278.141232672807007
 30
0.0
 10
187.2921682482320023
 20
277.6607987018876429
 30
0.0
  0
LINE
  5
A0
100
AcDbEntity
  8
0
 62
256
370
-1
 48
1.0
  6
BYLAYER
100
AcDbLine
 10
187.2921682482320023
 20
277.660798701887586
 30
0.0
 11
186.9547416667162452
 21
276.1992436047098067
 31
0.0
  0
ARC
  5
A1
100
AcDbEntity
  8
0
 62
256
370
-1
 48
1.0
  6
BYLAYER
100
AcDbCircle
 10
185.0060015371457212
 20
276.6491457133975018
 30
0.0
 40
1.9999999999999583
100
AcDbArc
 50
257.0000000000006253
 51
347.0000000000013074
  0
LINE
  5
A2
100
AcDbEntity
  8
0
 62
256
370
-1
 48
1.0
  6
BYLAYER
100
AcDbLine
 10
184.5560994284580261
 20
274.7004055838270915
 30
0.0
 11
181.6329892333715179
 21
275.3752587470274307
 31
0.0
  0
ARC
  5
A3
100
AcDbEntity
  8
0
 62
256
370
-1
 48
1.0
  6
BYLAYER
100
AcDbCircle
 10
180.1708073801363525
 20
269.0418533259232845
 30
0.0
 40
6.5000000000000799
100
AcDbArc
 50
76.9999999999998721
 51
166.9999926975947346
  0
LINE
  5
A4
100
AcDbEntity
  8
0
 62
256
370
-1
 48
1.0
  6
BYLAYER
100
AcDbLine
 10
173.8374021453889782
 20
270.5040359863573372
 30
0.0
 11
173.8373873386335333
 21
270.5039718453634805
 31
0.0
  0
ARC
  5
A5
100
AcDbEntity
  8
0
 62
256
370
-1
 48
1.0
  6
BYLAYER
100
AcDbCircle
 10
180.1708073811108193
 20
269.0418533256982982
 30
0.0
 40
6.5000000000000782
100
AcDbArc
 50
167.0005729527529468
 51
257.0000000000001705
  0
LINE
  5
A6
100
AcDbEntity
  8
0
 62
256
370
-1
 48
1.0
  6
BYLAYER
100
AcDbLine
 10
178.7086255278757108
 20
262.7084479045942658
 30
0.0
 11
181.6317357219878375
 21
262.0335947416189128
 31
0.0
  0
ARC
  5
A7
100
AcDbEntity
  8
0
 62
256
370
-1
 48
1.0
  6
BYLAYER
100
AcDbCircle
 10
181.1818336133000571
 20
260.0848546120485025
 30
0.0
 40
2.0000000000000089
100
AcDbArc
 50
-13.0000000000006164
 51
76.9999999999982236
  0
LINE
  5
A8
100
AcDbEntity
  8
0
 62
256
370
-1
 48
1.0
  6
BYLAYER
100
AcDbLine
 10
183.1305737428705243
 20
259.6349525033607506
 30
0.0
 11
166.496496019568724
 21
187.5848461539114851
 31
0.0
  0
SPLINE
  5
A9
100
AcDbEntity
  8
0
 62
256
370
-1
 48
1.0
  6
BYLAYER
100
AcDbSpline
 70
8
 71
3
 72
16
 73
12
 74
0
 40
0.0
 40
0.0
 40
0.0
 40
0.0
 40
0.2713915408416653
 40
0.2713915408416653
 40
0.4446171952577125
 40
0.4446171952577125
 40
0.5975916141687185
 40
0.5975916141687185
 40
0.7604305773583085
 40
0.7604305773583085
 40
0.9527083241994794
 40
0.9527083241994794
 40
0.9527083241994794
 40
0.9527083241994794
 10
166.496496019568724
 20
187.5848461539114851
 30
0.0
 10
166.2929966420609276
 20
186.7033935098046697
 30
0.0
 10
166.1787959755459951
 20
185.755094477582503
 30
0.0
 10
166.3593685438590342
 20
184.2815565226461842
 30
0.0
 10
166.5206208225653199
 20
183.7301832951797564
 30
0.0
 10
167.0555616847189526
 20
182.7812725937559435
 30
0.0
 10
167.3857172374666789
 20
182.4025126008118036
 30
0.0
 10
168.2088974812541267
 20
181.7432793933344328
 30
0.0
 10
168.693436470197156
 20
181.4848747165211194
 30
0.0
 10
169.7978489151816746
 20
181.0539288531116426
 30
0.0
 10
170.4392940281445021
 20
180.9003754282431373
 30
0.0
 10
171.0729197370764041
 20
180.8000189749586752
 30
0.0
  0
LINE
  5
AA
100
AcDbEntity
  8
0
 62
256
370
-1
 48
1.0
  6
BYLAYER
100
AcDbLine
 10
171.0729197370764041
 20
180.8000189749586752
 30
0.0
 11
191.993321844761283
 21
177.4865527957687732
 31
0.0
  0
LINE
  5
AB
100
AcDbEntity
  8
0
 62
256
370
-1
 48
1.0
  6
BYLAYER
100
AcDbLine
 10
191.993321844761283
 20
177.4865527957687732
 30
0.0
 11
191.9933218447611694
 21
136.8535272373686666
 31
0.0
  0
ARC
  5
AC
100
AcDbEntity
  8
0
 62
256
370
-1
 48
1.0
  6
BYLAYER
100
AcDbCircle
 10
197.9933218447611125
 20
136.8535272373685814
 30
0.0
 40
5.9999999999999432
100
AcDbArc
 50
180.0
 51
269.9999999999994316
  0
LINE
  5
AD
100
AcDbEntity
  8
0
 62
256
370
-1
 48
1.0
  6
BYLAYER
100
AcDbLine
 10
197.9933218447610557
 20
130.8535272373685814
 30
0.0
 11
199.4933218447611694
 21
130.8535272373686666
 31
0.0
  0
ARC
  5
AE
100
AcDbEntity
  8
0
 62
256
370
-1
 48
1.0
  6
BYLAYER
100
AcDbCircle
 10
199.4933218447610841
 20
128.8535272373686666
 30
0.0
 40
1.9999999999999929
100
AcDbArc
 50
0.0
 51
89.9999999999975557
  0
LWPOLYLINE
  5
AF
100
AcDbEntity
  8
0
 62
256
370
-1
 48
1.0
  6
BYLAYER
100
AcDbPolyline
 90
53
 70
1
 10
73.246652974221206
 20
203.5577542789916095
 42
-0.4142135623731001
 10
71.3540658171979629
 20
205.6596852609866062
 10
72.0511368761268187
 20
218.9605934174677486
 10
53.1906180452069037
 20
221.9478061367333908
 10
53.1906180452069464
 20
207.1380926620426806
 42
-0.4142135623730937
 10
51.1906180452069677
 20
205.138092662042709
 10
34.1906180452068114
 20
205.1380926620425953
 10
34.1906180452068114
 20
204.1380926620426806
 42
-0.414213562373112
 10
32.1906180452067758
 20
202.1380926620426806
 10
16.19061804520679
 20
202.1380926620426521
 42
-0.4142135623731061
 10
14.1906180452067758
 20
204.1380926620426521
 10
14.1906180452071684
 20
258.138092662042709
 42
-0.4142135623730882
 10
16.1906180452071489
 20
260.138092662042709
 10
33.1906180452068327
 20
260.138092662042709
 10
33.1906180452068114
 20
261.1380926620426521
 42
-0.4142135623730898
 10
35.1906180452068043
 20
263.1380926620426521
 10
51.1906180452068611
 20
263.1380926620425953
 42
-0.4142135623730937
 10
53.1906180452068469
 20
261.1380926620425953
 10
53.1906180452069037
 20
234.1380926620426806
 10
54.6983420315621345
 20
234.1380926620426806
 10
61.5382725903260308
 20
277.3237145877103558
 42
-0.4142135623730827
 10
63.8265182015967412
 20
278.9862223388200846
 10
79.6295316511189242
 20
276.4832708981764426
 42
-0.4142135623730931
 10
81.2920394022287809
 20
274.1950252869056612
 10
77.0683088461425285
 20
247.5274400908369898
 10
78.0735737083895316
 20
247.3682217782520354
 10
85.7149732643287052
 20
280.4667596005683095
 42
-0.4142135623730919
 10
88.1136155025869527
 20
281.9655976214510247
 10
103.7035365391506758
 20
278.3663807519491797
 42
-0.4142135623731064
 10
105.2023745600334337
 20
275.9677385136909606
 10
98.4607792214696786
 20
246.7666809505156778
 10
99.4341020088887433
 20
246.4691063114388214
 10
107.3281380364026063
 20
272.2893347224407989
 42
-0.4142135623731
 10
109.82549095777415
 20
273.6172008249213832
 10
125.1263670531827472
 20
268.9392535493575451
 42
-0.414213562373099
 10
126.4542331556633457
 20
266.4419006279860582
 10
142.7114140070349606
 20
261.4715816476995656
 42
-0.4142135623730901
 10
144.0392801095155164
 20
258.9742287263280787
 10
127.8126504974036663
 20
205.8993147703795046
 10
130.6815647652927908
 20
205.0221996562112565
 10
135.7980695979406676
 20
221.7575328855643875
 42
-0.4142135623731075
 10
138.2954225193122113
 20
223.0853989880450285
 10
153.5962986147208937
 20
218.4074517124812473
 42
-0.0632542239299337
 10
154.0558829549036375
 20
218.2005325450656414
 10
154.0744509927022818
 20
218.2612658601198348
 42
-0.3419987131196662
 10
154.9427327550002076
 20
215.9708321061638685
 10
144.6725870141069095
 20
182.37869901734922
 42
-0.3419987131196239
 10
142.671954508515654
 20
180.9653803775614449
 10
142.6905225463143552
 20
181.0261136926155814
 42
-0.063254223929886
 10
142.1938021305340385
 20
181.1115662299228006
 10
91.031497686511571
 20
196.7534524325891994
 42
-0.4142135623730696
 10
89.7036315840310152
 20
199.2508053539607431
 10
90.7401062535141705
 20
202.6409612406321799
  0
ARC
  5
B0
100
AcDbEntity
  8
0
 62
256
370
-1
 48
1.0
  6
BYLAYER
100
AcDbCircle
 10
153.779557952815054
 20
189.934285229765635
 30
0.0
 40
4.000000000000008
100
AcDbArc
 50
307.9031987724148962
 51
343.0000000000001705
  0
LINE
  5
B1
100
AcDbEntity
  8
0
 62
256
370
-1
 48
1.0
  6
BYLAYER
100
AcDbLine
 10
157.604776976667182
 20
188.7647984108747039
 30
0.0
 11
166.8657807355111515
 21
219.0561768052806713
 31
0.0
  0
ARC
  5
B2
100
AcDbEntity
  8
0
 62
256
370
-1
 48
1.0
  6
BYLAYER
100
AcDbCircle
 10
161.1279521997329311
 20
220.8104070336171105
 30
0.0
 40
6.0000000000000089
100
AcDbArc
 50
-17.0000000000001634
 51
73.0000000000000995
  0
LINE
  5
B3
100
AcDbEntity
  8
0
 62
256
370
-1
 48
1.0
  6
BYLAYER
100
AcDbLine
 10
162.882182428069342
 20
226.5482355693953309
 30
0.0
 11
141.843477796882496
 21
232.9804130732955514
 31
0.0
  0
LINE
  5
B4
100
AcDbEntity
  8
0
 62
256
370
-1
 48
1.0
  6
BYLAYER
100
AcDbLine
 10
141.843477796882496
 20
232.9804130732955514
 30
0.0
 11
153.6335749141380802
 21
271.5440831014532819
 31
0.0
  0
SPLINE
  5
B5
100
AcDbEntity
  8
0
 62
256
370
-1
 48
1.0
  6
BYLAYER
100
AcDbSpline
 70
8
 71
3
 72
16
 73
12
 74
0
 40
0.0
 40
0.0
 40
0.0
 40
0.0
 40
0.2817157271521926
 40
0.2817157271521926
 40
0.450898605107605
 40
0.450898605107605
 40
0.590262828437113
 40
0.590262828437113
 40
0.7187581703014544
 40
0.7187581703014544
 40
0.8663558200253347
 40
0.8663558200253347
 40
0.8663558200253347
 40
0.8663558200253347
 10
153.6335749141380802
 20
271.5440831014532819
 30
0.0
 10
153.9081272721203675
 20
272.4421034004706712
 30
0.0
 10
154.1127557904201808
 20
273.4321021778400223
 30
0.0
 10
154.0707928036604528
 20
274.9381130628464689
 30
0.0
 10
153.9716737044481647
 20
275.4979541624098829
 30
0.0
 10
153.5576427608387746
 20
276.4425061089189626
 30
0.0
 10
153.2947704715911925
 20
276.8158631985127158
 30
0.0
 10
152.6453656646566799
 20
277.4321899140389291
 30
0.0
 10
152.2858170490057717
 20
277.6680995322823833
 30
0.0
 10
151.4569451260630899
 20
278.0735065094461902
 30
0.0
 10
150.978323480645571
 20
278.2283293367504484
 30
0.0
 10
150.4978895097261216
 20
278.3392462585719045
 30
0.0
  0
LINE
  5
B6
100
AcDbEntity
  8
0
 62
256
370
-1
 48
1.0
  6
BYLAYER
100
AcDbLine
 10
150.4978895097261216
 20
278.3392462585719045
 30
0.0
 11
146.9166462380482017
 21
279.1660414146847984
 31
0.0
  0
ARC
  5
B7
100
AcDbEntity
  8
0
 62
256
370
-1
 48
1.0
  6
BYLAYER
100
AcDbCircle
 10
146.0168420206726978
 20
275.2685611555438641
 30
0.0
 40
4.0000000000000178
100
AcDbArc
 50
76.9999999999993605
 51
112.0968012207905673
  0
ARC
  5
B8
100
AcDbEntity
  8
0
 62
256
370
-1
 48
1.0
  6
BYLAYER
100
AcDbCircle
 10
141.8789441337617632
 20
285.4606071266674121
 30
0.0
 40
6.999999999999905
100
AcDbArc
 50
221.9031987792098164
 51
292.0968012207904394
  0
ARC
  5
B9
100
AcDbEntity
  8
0
 62
256
370
-1
 48
1.0
  6
BYLAYER
100
AcDbCircle
 10
133.6919272683239228
 20
278.1139919301953682
 30
0.0
 40
4.0000000000000027
100
AcDbArc
 50
41.9031987792097596
 51
76.9999999999999858
  0
LINE
  5
BA
100
AcDbEntity
  8
0
 62
256
370
-1
 48
1.0
  6
BYLAYER
100
AcDbLine
 10
134.5917314856993698
 20
282.0114721893362457
 30
0.0
 11
60.4219369617500064
 21
299.1349184872352112
 31
0.0
  0
SPLINE
  5
BB
100
AcDbEntity
  8
0
 62
256
370
-1
 48
1.0
  6
BYLAYER
100
AcDbSpline
 70
8
 71
3
 72
16
 73
12
 74
0
 40
0.0
 40
0.0
 40
0.0
 40
0.0
 40
0.2713915408416653
 40
0.2713915408416653
 40
0.4446171952577125
 40
0.4446171952577125
 40
0.5975916141687168
 40
0.5975916141687168
 40
0.7604305773583064
 40
0.7604305773583064
 40
0.952708324199494
 40
0.952708324199494
 40
0.952708324199494
 40
0.952708324199494
 10
60.4219369617500064
 20
299.1349184872352112
 30
0.0
 10
59.5404843176431271
 20
299.3384178647430076
 30
0.0
 10
58.5921852854209675
 20
299.4526185312578832
 30
0.0
 10
57.1186473304847127
 20
299.272045962944901
 30
0.0
 10
56.5672741030183275
 20
299.1107936842385016
 30
0.0
 10
55.6183634015943866
 20
298.5758528220849826
 30
0.0
 10
55.2396034086503391
 20
298.2456972693372563
 30
0.0
 10
54.5803702011729115
 20
297.4225170255497233
 30
0.0
 10
54.3219655243596549
 20
296.9379780366067507
 30
0.0
 10
53.8910196609502208
 20
295.8335655916222322
 30
0.0
 10
53.7374662360816018
 20
295.192120478659433
 30
0.0
 10
53.6371097827971894
 20
294.5584947697275311
 30
0.0
  0
LINE
  5
BC
100
AcDbEntity
  8
0
 62
256
370
-1
 48
1.0
  6
BYLAYER
100
AcDbLine
 10
53.6371097827971894
 20
294.5584947697275311
 30
0.0
 11
50.3236436036073016
 21
273.6380926620426521
 31
0.0
  0
LINE
  5
BD
100
AcDbEntity
  8
0
 62
256
370
-1
 48
1.0
  6
BYLAYER
100
AcDbLine
 10
50.3236436036073016
 20
273.6380926620426521
 30
0.0
 11
9.6906180452072022
 21
273.6380926620428227
 31
0.0
  0
ARC
  5
BE
100
AcDbEntity
  8
0
 62
256
370
-1
 48
1.0
  6
BYLAYER
100
AcDbCircle
 10
9.6906180452071755
 20
267.6380926620428227
 30
0.0
 40
5.9999999999999787
100
AcDbArc
 50
89.9999999999997442
 51
180.0
  0
LINE
  5
BF
100
AcDbEntity
  8
0
 62
256
370
-1
 48
1.0
  6
BYLAYER
100
AcDbLine
 10
3.6906180452071888
 20
267.6380926620428795
 30
0.0
 11
3.6906180452071613
 21
263.9626479823796217
 31
0.0
  0
ARC
  5
C0
100
AcDbEntity
  8
0
 62
256
370
-1
 48
1.0
  6
BYLAYER
100
AcDbCircle
 10
7.6906180452071737
 20
263.9626479823796217
 30
0.0
 40
4.0000000000000124
100
AcDbArc
 50
180.0
 51
215.0968012275853312
  0
ARC
  5
C1
100
AcDbEntity
  8
0
 62
256
370
-1
 48
1.0
  6
BYLAYER
100
AcDbCircle
 10
-1.3093819547927976
 20
257.6380926620428795
 30
0.0
 40
6.9999999999999609
100
AcDbArc
 50
-35.0968012275851322
 51
35.0968012275841872
  0
ARC
  5
C2
100
AcDbEntity
  8
0
 62
256
370
-1
 48
1.0
  6
BYLAYER
100
AcDbCircle
 10
7.690618045207156
 20
251.3135373417060521
 30
0.0
 40
4.0000000000000338
100
AcDbArc
 50
144.9031987724151804
 51
180.0
  0
LINE
  5
C3
100
AcDbEntity
  8
0
 62
256
370
-1
 48
1.0
  6
BYLAYER
100
AcDbLine
 10
3.6906180452071351
 20
251.3135373417060805
 30
0.0
 11
3.6906180452070014
 21
213.9626479823793659
 31
0.0
  0
ARC
  5
C4
100
AcDbEntity
  8
0
 62
256
370
-1
 48
1.0
  6
BYLAYER
100
AcDbCircle
 10
7.6906180452069872
 20
213.9626479823793659
 30
0.0
 40
3.9999999999999858
100
AcDbArc
 50
180.0
 51
215.0968012275846206
  0
ARC
  5
C5
100
AcDbEntity
  8
0
 62
256
370
-1
 48
1.0
  6
BYLAYER
100
AcDbCircle
 10
-1.309381954793063
 20
207.6380926620427374
 30
0.0
 40
7.0000000000000062
100
AcDbArc
 50
-35.0968012275845709
 51
35.0968012275834553
  0
ARC
  5
C6
100
AcDbEntity
  8
0
 62
256
370
-1
 48
1.0
  6
BYLAYER
100
AcDbCircle
 10
7.6906180452069517
 20
201.3135373417059668
 30
0.0
 40
4.0000000000000169
100
AcDbArc
 50
144.903198772415351
 51
180.0
  0
LINE
  5
C7
100
AcDbEntity
  8
0
 62
256
370
-1
 48
1.0
  6
BYLAYER
100
AcDbLine
 10
3.690618045206957
 20
201.3135373417059952
 30
0.0
 11
3.6906180452069304
 21
197.6380926620426521
 31
0.0
  0
ARC
  5
C8
100
AcDbEntity
  8
0
 62
256
370
-1
 48
1.0
  6
BYLAYER
100
AcDbCircle
 10
9.6906180452069179
 20
197.6380926620426237
 30
0.0
 40
5.9999999999999876
100
AcDbArc
 50
180.0
 51
269.9999999999998295
  0
LINE
  5
C9
100
AcDbEntity
  8
0
 62
256
370
-1
 48
1.0
  6
BYLAYER
100
AcDbLine
 10
9.690618045206902
 20
191.6380926620426521
 30
0.0
 11
50.1906180452067758
 21
191.6380926620424248
 31
0.0
  0
SPLINE
  5
CA
100
AcDbEntity
  8
0
 62
256
370
-1
 48
1.0
  6
BYLAYER
100
AcDbSpline
 70
8
 71
3
 72
10
 73
6
 74
0
 40
0.0
 40
0.0
 40
0.0
 40
0.0
 40
3.7074409309769192
 40
3.7074409309769192
 40
7.3346637182346912
 40
7.3346637182346912
 40
7.3346637182346912
 40
7.3346637182346912
 10
50.1906180452067758
 20
191.6380926620424248
 30
0.0
 10
62.5487544817964931
 20
191.6380926620423679
 30
0.0
 10
67.4241527026494509
 20
191.5069363641214579
 30
0.0
 10
74.9262357824685807
 20
190.5121225877956022
 30
0.0
 10
78.7910686024754199
 20
189.515963714683096
 30
0.0
 10
88.439747164904432
 20
186.5660666426160503
 30
0.0
  0
LINE
  5
CB
100
AcDbEntity
  8
0
 62
256
370
-1
 48
1.0
  6
BYLAYER
100
AcDbLine
 10
88.439747164904432
 20
186.5660666426160503
 30
0.0
 11
145.3398801447049777
 21
169.1699502116131555
 31
0.0
  0
ARC
  5
CC
100
AcDbEntity
  8
0
 62
256
370
-1
 48
1.0
  6
BYLAYER
100
AcDbCircle
 10
147.0941103730414738
 20
174.9077787473913759
 30
0.0
 40
6.0000000000000187
100
AcDbArc
 50
252.999999999999261
 51
343.0000000000001705
  0
LINE
  5
CD
100
AcDbEntity
  8
0
 62
256
370
-1
 48
1.0
  6
BYLAYER
100
AcDbLine
 10
152.8319389088196942
 20
173.153548519054965
 30
0.0
 11
153.9065349354268903
 21
176.6683937464958944
 31
0.0
  0
ARC
  5
CE
100
AcDbEntity
  8
0
 62
256
370
-1
 48
1.0
  6
BYLAYER
100
AcDbCircle
 10
150.0813159115747624
 20
177.837880565386854
 30
0.0
 40
4.0000000000000018
100
AcDbArc
 50
-17.0000000000002132
 51
18.0968012275847734
  0
ARC
  5
CF
100
AcDbEntity
  8
0
 62
256
370
-1
 48
1.0
  6
BYLAYER
100
AcDbCircle
 10
160.5371797358621393
 20
181.2547375550716993
 30
0.0
 40
6.9999999999998899
100
AcDbArc
 50
127.9031987724151946
 51
198.0968012275854733
  0
CIRCLE
  5
D0
100
AcDbEntity
  8
0
 62
256
370
-1
 48
1.0
  6
BYLAYER
100
AcDbCircle
 10
28.3179104411878768
 20
7.1185983393299601
 30
0.0
 40
2.9999999999999893
  0
CIRCLE
  5
D1
100
AcDbEntity
  8
0
 62
256
370
-1
 48
1.0
  6
BYLAYER
100
AcDbCircle
 10
125.6558005557768212
 20
48.7398448006764724
 30
0.0
 40
2.9999999999999982
  0
CIRCLE
  5
D2
100
AcDbEntity
  8
0
 62
256
370
-1
 48
1.0
  6
BYLAYER
100
AcDbCircle
 10
17.6175071717768716
 20
170.7520066875630391
 30
0.0
 40
3.0000000000000071
  0
CIRCLE
  5
D3
100
AcDbEntity
  8
0
 62
256
370
-1
 48
1.0
  6
BYLAYER
100
AcDbCircle
 10
66.3360104110388562
 20
181.9995594047560417
 30
0.0
 40
2.9999999999999893
  0
LINE
  5
D4
100
AcDbEntity
  8
0
 62
256
370
-1
 48
1.0
  6
BYLAYER
100
AcDbLine
 10
107.9814093706665119
 20
39.640775958010785
 30
0.0
 11
66.3821802276883801
 21
42.5496774312868098
 31
0.0
  0
ARC
  5
D5
100
AcDbEntity
  8
0
 62
256
370
-1
 48
1.0
  6
BYLAYER
100
AcDbCircle
 10
66.2775455170722552
 20
41.0533313558971003
 30
0.0
 40
1.4999999999999689
100
AcDbArc
 50
86.0000000000023306
 51
176.0000000000002274
  0
LINE
  5
D6
100
AcDbEntity
  8
0
 62
256
370
-1
 48
1.0
  6
BYLAYER
100
AcDbLine
 10
64.7811994416825314
 20
41.157966066513282
 30
0.0
 11
64.4672953098339576
 21
36.6689278403441321
 31
0.0
  0
LINE
  5
D7
100
AcDbEntity
  8
0
 62
256
370
-1
 48
1.0
  6
BYLAYER
100
AcDbLine
 10
64.4672953098339576
 20
36.6689278403441321
 30
0.0
 11
74.4429358124322107
 21
35.9713631029028065
 31
0.0
  0
LINE
  5
D8
100
AcDbEntity
  8
0
 62
256
370
-1
 48
1.0
  6
BYLAYER
100
AcDbLine
 10
74.4429358124322107
 20
35.9713631029028065
 30
0.0
 11
74.5126922861763461
 21
36.9689271531626602
 31
0.0
  0
LINE
  5
D9
100
AcDbEntity
  8
0
 62
256
370
-1
 48
1.0
  6
BYLAYER
100
AcDbLine
 10
74.5126922861763461
 20
36.9689271531626602
 30
0.0
 11
114.7401727272119984
 21
34.1559476934010604
 31
0.0
  0
SPLINE
  5
DA
100
AcDbEntity
  8
0
 62
256
370
-1
 48
1.0
  6
BYLAYER
100
AcDbSpline
 70
8
 71
3
 72
16
 73
12
 74
0
 40
0.0
 40
0.0
 40
0.0
 40
0.0
 40
0.2817157271521926
 40
0.2817157271521926
 40
0.450898605107605
 40
0.450898605107605
 40
0.590262828437113
 40
0.590262828437113
 40
0.7187581703014544
 40
0.7187581703014544
 40
0.8663558200253347
 40
0.8663558200253347
 40
0.8663558200253347
 40
0.8663558200253347
 10
114.7401727272120127
 20
34.1559476934010604
 30
0.0
 10
115.6769376665447879
 20
34.0904427076530609
 30
0.0
 10
116.6875942403278259
 20
34.113760073788761
 30
0.0
 10
118.1455665458038311
 20
34.4934262883519622
 30
0.0
 10
118.6687620083814636
 20
34.7159418170847474
 30
0.0
 10
119.4959684523985857
 20
35.3318391306822051
 30
0.0
 10
119.8006230253500348
 20
35.6719610911375113
 30
0.0
 10
120.2550690310703061
 20
36.4433650394200654
 30
0.0
 10
120.4040514609030907
 20
36.8467665646990312
 30
0.0
 10
120.6126122705246075
 20
37.7455912809067158
 30
0.0
 10
120.6558005550268149
 20
38.2467734427983359
 30
0.0
 10
120.6558005550268149
 20
38.7398448006764724
 30
0.0
  0
LINE
  5
DB
100
AcDbEntity
  8
0
 62
256
370
-1
 48
1.0
  6
BYLAYER
100
AcDbLine
 10
120.6558005550268149
 20
38.7398448006764724
 30
0.0
 11
120.6558005550268007
 21
40.2398448006764582
 31
0.0
  0
ARC
  5
DC
100
AcDbEntity
  8
0
 62
256
370
-1
 48
1.0
  6
BYLAYER
100
AcDbCircle
 10
122.6558005550268291
 20
40.2398448006764582
 30
0.0
 40
2.0000000000000018
100
AcDbArc
 50
90.0000000000003979
 51
180.0
  0
LINE
  5
DD
100
AcDbEntity
  8
0
 62
256
370
-1
 48
1.0
  6
BYLAYER
100
AcDbLine
 10
122.6558005550268149
 20
42.2398448006764582
 30
0.0
 11
125.6558005557768212
 21
42.2398448006764866
 31
0.0
  0
ARC
  5
DE
100
AcDbEntity
  8
0
 62
256
370
-1
 48
1.0
  6
BYLAYER
100
AcDbCircle
 10
125.6558005557768212
 20
48.7398448006764724
 30
0.0
 40
6.4999999999999858
100
AcDbArc
 50
270.0
 51
359.9999927053548276
  0
LINE
  5
DF
100
AcDbEntity
  8
0
 62
256
370
-1
 48
1.0
  6
BYLAYER
100
AcDbLine
 10
132.1558005557767501
 20
48.7398439722448842
 30
0.0
 11
132.1558005544518437
 21
48.7399098001045346
 31
0.0
  0
ARC
  5
E0
100
AcDbEntity
  8
0
 62
256
370
-1
 48
1.0
  6
BYLAYER
100
AcDbCircle
 10
125.6558005557768212
 20
48.7398448006764724
 30
0.0
 40
6.4999999990000132
100
AcDbArc
 50
0.0005729527299267
 51
90.0000000088146237
  0
LINE
  5
E1
100
AcDbEntity
  8
0
 62
256
370
-1
 48
1.0
  6
BYLAYER
100
AcDbLine
 10
125.6558005547768317
 20
55.2398448006764937
 30
0.0
 11
122.6558005550268007
 21
55.2398448006764937
 31
0.0
  0
ARC
  5
E2
100
AcDbEntity
  8
0
 62
256
370
-1
 48
1.0
  6
BYLAYER
100
AcDbCircle
 10
122.6558005550268007
 20
57.2398448006764866
 30
0.0
 40
2.0000000000000107
100
AcDbArc
 50
180.0
 51
270.0
  0
LINE
  5
E3
100
AcDbEntity
  8
0
 62
256
370
-1
 48
1.0
  6
BYLAYER
100
AcDbLine
 10
120.6558005550267865
 20
57.2398448006764866
 30
0.0
 11
120.6558005550268149
 21
131.185164914067002
 31
0.0
  0
SPLINE
  5
E4
100
AcDbEntity
  8
0
 62
256
370
-1
 48
1.0
  6
BYLAYER
100
AcDbSpline
 70
8
 71
3
 72
16
 73
12
 74
0
 40
0.0
 40
0.0
 40
0.0
 40
0.0
 40
0.271391540841682
 40
0.271391540841682
 40
0.4446171952577409
 40
0.4446171952577409
 40
0.5975916141687585
 40
0.5975916141687585
 40
0.7604305773583742
 40
0.7604305773583742
 40
0.9527083241995844
 40
0.9527083241995844
 40
0.9527083241995844
 40
0.9527083241995844
 10
120.6558005550268149
 20
131.185164914067002
 30
0.0
 10
120.6558005550268149
 20
132.0898033835392766
 30
0.0
 10
120.5537533987258314
 20
133.0394871333406286
 30
0.0
 10
120.0463349770616333
 20
134.4346384163277435
 30
0.0
 10
119.7651835949562127
 20
134.9356061135846687
 30
0.0
 10
119.0304947696798621
 20
135.7398607842534659
 30
0.0
 10
118.6235986226037937
 20
136.0346443434283401
 30
0.0
 10
117.6732212300541391
 20
136.4918061827516453
 30
0.0
 10
117.1429725395102395
 20
136.634590408005522
 30
0.0
 10
115.9699243876020773
 20
136.8060524129249984
 30
0.0
 10
115.3103774665060541
 20
136.8113765189974913
 30
0.0
 10
114.6704162534678773
 20
136.766626071602218
 30
0.0
  0
LINE
  5
E5
100
AcDbEntity
  8
0
 62
256
370
-1
 48
1.0
  6
BYLAYER
100
AcDbLine
 10
114.6704162534678915
 20
136.766626071602218
 30
0.0
 11
93.5408349859281998
 21
135.2891018158618692
 31
0.0
  0
LINE
  5
E6
100
AcDbEntity
  8
0
 62
256
370
-1
 48
1.0
  6
BYLAYER
100
AcDbLine
 10
93.5408349859281998
 20
135.2891018158618692
 30
0.0
 11
84.4003930453851297
 21
174.8807055616203172
 31
0.0
  0
ARC
  5
E7
100
AcDbEntity
  8
0
 62
256
370
-1
 48
1.0
  6
BYLAYER
100
AcDbCircle
 10
78.5541726566736997
 20
173.5309992355571751
 30
0.0
 40
6.0000000000000018
100
AcDbArc
 50
12.9999999999995133
 51
102.999999999999801
  0
LINE
  5
E8
100
AcDbEntity
  8
0
 62
256
370
-1
 48
1.0
  6
BYLAYER
100
AcDbLine
 10
77.2044663306105292
 20
179.377219624268605
 30
0.0
 11
75.7429112334326931
 21
179.0397930427527626
 31
0.0
  0
ARC
  5
E9
100
AcDbEntity
  8
0
 62
256
370
-1
 48
1.0
  6
BYLAYER
100
AcDbCircle
 10
75.2930091247449838
 20
180.9885331723232582
 30
0.0
 40
2.0000000000000093
100
AcDbArc
 50
192.9999999999997442
 51
282.999999999999261
  0
LINE
  5
EA
100
AcDbEntity
  8
0
 62
256
370
-1
 48
1.0
  6
BYLAYER
100
AcDbLine
 10
73.3442689951745024
 20
180.5386310636355347
 30
0.0
 11
72.6694158321428887
 21
183.4617412579911502
 31
0.0
  0
ARC
  5
EB
100
AcDbEntity
  8
0
 62
256
370
-1
 48
1.0
  6
BYLAYER
100
AcDbCircle
 10
66.3360104110388562
 20
181.9995594047560417
 30
0.0
 40
6.5000000000000036
100
AcDbArc
 50
12.9999999999998543
 51
192.9999985212207889
  0
LINE
  5
EC
100
AcDbEntity
  8
0
 62
256
370
-1
 48
1.0
  6
BYLAYER
100
AcDbLine
 10
60.0026049521965561
 20
180.5373777149833643
 30
0.0
 11
60.677458152966409
 21
177.6142673571653177
 31
0.0
  0
ARC
  5
ED
100
AcDbEntity
  8
0
 62
256
370
-1
 48
1.0
  6
BYLAYER
100
AcDbCircle
 10
58.7287180233959276
 20
177.1643652484775373
 30
0.0
 40
1.999999999999976
100
AcDbArc
 50
-76.9999999999987779
 51
13.0000000000012985
  0
LINE
  5
EE
100
AcDbEntity
  8
0
 62
256
370
-1
 48
1.0
  6
BYLAYER
100
AcDbLine
 10
59.1786201320836938
 20
175.2156251189070986
 30
0.0
 11
27.0244079941706872
 21
167.7922403255596464
 31
0.0
  0
ARC
  5
EF
100
AcDbEntity
  8
0
 62
256
370
-1
 48
1.0
  6
BYLAYER
100
AcDbCircle
 10
26.5745058854829495
 20
169.7409804551301704
 30
0.0
 40
2.0000000000000093
100
AcDbArc
 50
192.9999999999997158
 51
282.9999999999998295
  0
LINE
  5
F0
100
AcDbEntity
  8
0
 62
256
370
-1
 48
1.0
  6
BYLAYER
100
AcDbLine
 10
24.6257657559124645
 20
169.2910783464424469
 30
0.0
 11
23.9509125928808686
 21
172.2141885407981476
 31
0.0
  0
ARC
  5
F1
100
AcDbEntity
  8
0
 62
256
370
-1
 48
1.0
  6
BYLAYER
100
AcDbCircle
 10
17.6175071717768716
 20
170.7520066875630391
 30
0.0
 40
6.4999999999999689
100
AcDbArc
 50
12.9999999999999396
 51
192.9999999999999147
  0
LINE
  5
F2
100
AcDbEntity
  8
0
 62
256
370
-1
 48
1.0
  6
BYLAYER
100
AcDbLine
 10
11.2841017506728711
 20
169.2898248343279306
 30
0.0
 11
11.9589549137044315
 21
166.3667146399722583
 31
0.0
  0
ARC
  5
F3
100
AcDbEntity
  8
0
 62
256
370
-1
 48
1.0
  6
BYLAYER
100
AcDbCircle
 10
10.0102147841339431
 20
165.9168125312845063
 30
0.0
 40
2.0000000000000022
100
AcDbArc
 50
-77.0000000000003411
 51
13.0000000000005063
  0
LINE
  5
F4
100
AcDbEntity
  8
0
 62
256
370
-1
 48
1.0
  6
BYLAYER
100
AcDbLine
 10
10.4601168928216666
 20
163.9680724017140108
 30
0.0
 11
8.9985617956437736
 21
163.6306458201982537
 31
0.0
  0
ARC
  5
F5
100
AcDbEntity
  8
0
 62
256
370
-1
 48
1.0
  6
BYLAYER
100
AcDbCircle
 10
10.3482681217069228
 20
157.7844254314868522
 30
0.0
 40
5.999999999999968
100
AcDbArc
 50
102.9999999999996589
 51
193.0000000000001137
  0
LINE
  5
F6
100
AcDbEntity
  8
0
 62
256
370
-1
 48
1.0
  6
BYLAYER
100
AcDbLine
 10
4.5020477329955302
 20
156.4347191054236532
 30
0.0
 11
13.6125654339218372
 21
116.97273148162175
 31
0.0
  0
SPLINE
  5
F7
100
AcDbEntity
  8
0
 62
256
370
-1
 48
1.0
  6
BYLAYER
100
AcDbSpline
 70
8
 71
3
 72
10
 73
6
 74
0
 40
0.0
 40
0.0
 40
0.0
 40
0.0
 40
0.905818571756812
 40
0.905818571756812
 40
1.2940374105598331
 40
1.2940374105598331
 40
1.2940374105598331
 40
1.2940374105598331
 10
13.6125654339218372
 20
116.97273148162175
 30
0.0
 10
14.2917815764583267
 20
114.0307231468005682
 30
0.0
 10
15.6067340566187696
 20
108.2985238078446457
 30
0.0
 10
16.7272222315562047
 20
102.8481473303750136
 30
0.0
 10
17.0915417064612996
 20
100.9730484576562048
 30
0.0
 10
17.3568508289051593
 20
99.2508121775718024
 30
0.0
  0
SPLINE
  5
F8
100
AcDbEntity
  8
0
 62
256
370
-1
 48
1.0
  6
BYLAYER
100
AcDbSpline
 70
8
 71
3
 72
10
 73
6
 74
0
 40
0.0
 40
0.0
 40
0.0
 40
0.0
 40
0.0064012114232049
 40
0.0064012114232049
 40
0.0127664362484774
 40
0.0127664362484774
 40
0.0127664362484774
 40
0.0127664362484774
 10
17.3568508283662126
 20
99.2508121810702306
 30
0.0
 10
17.3600995118913204
 20
99.2297235710147731
 30
0.0
 10
17.3633376504856685
 20
99.2086332873760881
 30
0.0
 10
17.3697744042198465
 20
99.1665681183113037
 30
0.0
 10
17.3729731521627784
 20
99.1455931660717624
 30
0.0
 10
17.3761612032104651
 20
99.1246166262357065
 30
0.0
  0
SPLINE
  5
F9
100
AcDbEntity
  8
0
 62
256
370
-1
 48
1.0
  6
BYLAYER
100
AcDbSpline
 70
8
 71
3
 72
10
 73
6
 74
0
 40
0.0
 40
0.0
 40
0.0
 40
0.0
 40
0.6718688929497895
 40
0.6718688929497895
 40
1.5470133459777424
 40
1.5470133459777424
 40
1.5470133459777424
 40
1.5470133459777424
 10
17.3761612032104651
 20
99.1246166262356923
 30
0.0
 10
17.7126696590027066
 20
96.9104792355377498
 30
0.0
 10
17.8852043975728847
 20
94.9733923233916073
 30
0.0
 10
17.9641922467000015
 20
89.7579657350718492
 30
0.0
 10
17.7863902331626988
 20
85.8802350878019496
 30
0.0
 10
17.2747170359916069
 20
78.5629674625536296
 30
0.0
  0
LINE
  5
FA
100
AcDbEntity
  8
0
 62
256
370
-1
 48
1.0
  6
BYLAYER
100
AcDbLine
 10
17.2747170359916105
 20
78.5629674625536296
 30
0.0
 11
13.1242068482159979
 21
19.2079064720940629
 31
0.0
  0
ARC
  5
FB
100
AcDbEntity
  8
0
 62
256
370
-1
 48
1.0
  6
BYLAYER
100
AcDbCircle
 10
19.1095911497749071
 20
18.7893676296292789
 30
0.0
 40
5.9999999999999654
100
AcDbArc
 50
175.9999999999996874
 51
266.0000000000002842
  0
LINE
  5
FC
100
AcDbEntity
  8
0
 62
256
370
-1
 48
1.0
  6
BYLAYER
100
AcDbLine
 10
18.6910523073101906
 20
12.8039833280703554
 30
0.0
 11
20.1873983826999748
 21
12.6993486174541026
 31
0.0
  0
ARC
  5
FD
100
AcDbEntity
  8
0
 62
256
370
-1
 48
1.0
  6
BYLAYER
100
AcDbCircle
 10
20.0478854352117217
 20
10.7042205169344591
 30
0.0
 40
2.0000000000000036
100
AcDbArc
 50
-3.9999999999991407
 51
85.9999999999999147
  0
LINE
  5
FE
100
AcDbEntity
  8
0
 62
256
370
-1
 48
1.0
  6
BYLAYER
100
AcDbLine
 10
22.0430135357313759
 20
10.5647075694462362
 30
0.0
 11
21.8337441144990052
 21
7.5720154186667621
 31
0.0
  0
ARC
  5
FF
100
AcDbEntity
  8
0
 62
256
370
-1
 48
1.0
  6
BYLAYER
100
AcDbCircle
 10
28.3179104411878768
 20
7.1185983393299601
 30
0.0
 40
6.5000000000000133
100
AcDbArc
 50
176.0000000000001705
 51
356.0000000000002274
  0
LINE
  5
100
100
AcDbEntity
  8
0
 62
256
370
-1
 48
1.0
  6
BYLAYER
100
AcDbLine
 10
34.8020767678767555
 20
6.6651812599931564
 30
0.0
 11
35.0113461891090694
 21
9.6578734107725772
 31
0.0
  0
ARC
  5
101
100
AcDbEntity
  8
0
 62
256
370
-1
 48
1.0
  6
BYLAYER
100
AcDbCircle
 10
37.0064742896287342
 20
9.5183604632842957
 30
0.0
 40
2.0000000000000022
100
AcDbArc
 50
85.9999999999994316
 51
175.9999999999992326
  0
LINE
  5
102
100
AcDbEntity
  8
0
 62
256
370
-1
 48
1.0
  6
BYLAYER
100
AcDbLine
 10
37.145987237117005
 20
11.5134885638039464
 30
0.0
 11
66.5741267197248874
 21
9.4556725883562365
 31
0.0
  0
ARC
  5
103
100
AcDbEntity
  8
0
 62
256
370
-1
 48
1.0
  6
BYLAYER
100
AcDbCircle
 10
66.992665562189643
 20
15.4410568899152167
 30
0.0
 40
6.0000000000000338
100
AcDbArc
 50
266.0
 51
325.9999995070726868
  0
LINE
  5
104
100
AcDbEntity
  8
0
 62
256
370
-1
 48
1.0
  6
BYLAYER
100
AcDbLine
 10
71.9668909686547806
 20
12.0858994262964519
 30
0.0
 11
37.3552566552775289
 21
14.5061806696994644
 31
0.0
  0
LINE
  5
105
100
AcDbEntity
  8
0
 62
256
370
-1
 48
1.0
  6
BYLAYER
100
AcDbLine
 10
37.3552566552775289
 20
14.5061806696994644
 30
0.0
 11
37.843551974542784
 21
21.4891290661171475
 31
0.0
  0
LINE
  5
106
100
AcDbEntity
  8
0
 62
256
370
-1
 48
1.0
  6
BYLAYER
100
AcDbLine
 10
37.843551974542784
 20
21.4891290661171475
 30
0.0
 11
25.8727833714404198
 21
22.3262067513317604
 31
0.0
  0
ARC
  5
107
100
AcDbEntity
  8
0
 62
256
370
-1
 48
1.0
  6
BYLAYER
100
AcDbCircle
 10
26.0471745558007228
 20
24.820116876981352
 30
0.0
 40
2.5000000000000391
100
AcDbArc
 50
175.9999999999998863
 51
266.0000000000002274
  0
LINE
  5
108
100
AcDbEntity
  8
0
 62
256
370
-1
 48
1.0
  6
BYLAYER
100
AcDbLine
 10
23.553264430151124
 20
24.9945080613416764
 30
0.0
 11
27.4336859473701722
 21
80.4871211144540979
 31
0.0
  0
LINE
  5
109
100
AcDbEntity
  8
0
 62
256
370
-1
 48
1.0
  6
BYLAYER
100
AcDbLine
 10
27.4336859473701722
 20
80.4871211144540979
 30
0.0
 11
27.4336133791839032
 21
80.4871211144540979
 31
0.0
  0
ARC
  5
10A
100
AcDbEntity
  8
0
 62
256
370
-1
 48
1.0
  6
BYLAYER
100
AcDbCircle
 10
-85.6656787651269553
 20
88.267365906331591
 30
0.0
 40
113.366582785959082
100
AcDbArc
 50
-3.9352501667270232
 51
15.856396578658094
  0
LINE
  5
10B
100
AcDbEntity
  8
0
 62
256
370
-1
 48
1.0
  6
BYLAYER
100
AcDbLine
 10
23.3872511717625287
 20
119.2422035127757169
 30
0.0
 11
23.0526319225860377
 21
120.6915987176545144
 31
0.0
  0
LINE
  5
10C
100
AcDbEntity
  8
0
 62
256
370
-1
 48
1.0
  6
BYLAYER
100
AcDbLine
 10
23.0526319225860377
 20
120.6915987176545144
 30
0.0
 11
16.270307869942684
 21
149.9148990657951117
 31
0.0
  0
LINE
  5
10D
100
AcDbEntity
  8
0
 62
256
370
-1
 48
1.0
  6
BYLAYER
100
AcDbLine
 10
16.270307869942684
 20
149.9148990657951117
 30
0.0
 11
15.7079302340829585
 21
152.3508242277583804
 31
0.0
  0
ARC
  5
10E
100
AcDbEntity
  8
0
 62
256
370
-1
 48
1.0
  6
BYLAYER
100
AcDbCircle
 10
18.1438553960460567
 20
152.9132018636179851
 30
0.0
 40
2.5000000000000302
100
AcDbArc
 50
102.9999999999997726
 51
192.9999999999986073
  0
LINE
  5
10F
100
AcDbEntity
  8
0
 62
256
370
-1
 48
1.0
  6
BYLAYER
100
AcDbLine
 10
17.5814777601863952
 20
155.3491270255811116
 30
0.0
 11
73.1205714529451427
 21
168.171337123181047
 31
0.0
  0
ARC
  5
110
100
AcDbEntity
  8
0
 62
256
370
-1
 48
1.0
  6
BYLAYER
100
AcDbCircle
 10
73.6829490888047616
 20
165.735411961217892
 30
0.0
 40
2.500000000000036
100
AcDbArc
 50
13.000000000001128
 51
102.9999999999986784
  0
LINE
  5
111
100
AcDbEntity
  8
0
 62
256
370
-1
 48
1.0
  6
BYLAYER
100
AcDbLine
 10
76.1188742507678739
 20
166.2977895970776103
 30
0.0
 11
85.7183978449732109
 21
124.717684744154667
 31
0.0
  0
LINE
  5
112
100
AcDbEntity
  8
0
 62
256
370
-1
 48
1.0
  6
BYLAYER
100
AcDbLine
 10
85.7183978449732109
 20
124.717684744154667
 30
0.0
 11
107.9814093706664835
 21
126.2744661644079827
 31
0.0
  0
ARC
  5
113
100
AcDbEntity
  8
0
 62
256
370
-1
 48
1.0
  6
BYLAYER
100
AcDbCircle
 10
108.1558005550267865
 20
123.7805560387584336
 30
0.0
 40
2.4999999999999645
100
AcDbArc
 50
0.0
 51
93.9999999999997868
  0
LINE
  5
114
100
AcDbEntity
  8
0
 62
256
370
-1
 48
1.0
  6
BYLAYER
100
AcDbLine
 10
110.655800555026758
 20
123.7805560387584336
 30
0.0
 11
110.6558005550268149
 21
42.1346860836603554
 31
0.0
  0
ARC
  5
115
100
AcDbEntity
  8
0
 62
256
370
-1
 48
1.0
  6
BYLAYER
100
AcDbCircle
 10
108.1558005550268007
 20
42.1346860836603554
 30
0.0
 40
2.5000000000000093
100
AcDbArc
 50
-93.9999999999994458
 51
0.0
  0
CIRCLE
  5
116
100
AcDbEntity
  8
0
 62
256
370
-1
 48
1.0
  6
BYLAYER
100
AcDbCircle
 10
59.0722306356868003
 20
293.2886980985238097
 30
0.0
 40
1.6000000000000076
  0
CIRCLE
  5
117
100
AcDbEntity
  8
0
 62
256
370
-1
 48
1.0
  6
BYLAYER
100
AcDbCircle
 10
9.6906180452071755
 20
267.6380926620428227
 30
0.0
 40
1.6000000000000032
  0
CIRCLE
  5
118
100
AcDbEntity
  8
0
 62
256
370
-1
 48
1.0
  6
BYLAYER
100
AcDbCircle
 10
9.6906180452069179
 20
197.6380926620426237
 30
0.0
 40
1.6000000000000032
  0
CIRCLE
  5
119
100
AcDbEntity
  8
0
 62
256
370
-1
 48
1.0
  6
BYLAYER
100
AcDbCircle
 10
70.567214010043017
 20
197.1233884731919943
 30
0.0
 40
1.6000000000000032
  0
CIRCLE
  5
11A
100
AcDbEntity
  8
0
 62
256
370
-1
 48
1.0
  6
BYLAYER
100
AcDbCircle
 10
147.0941103730414738
 20
174.9077787473913759
 30
0.0
 40
1.5999999999999945
  0
CIRCLE
  5
11B
100
AcDbEntity
  8
0
 62
256
370
-1
 48
1.0
  6
BYLAYER
100
AcDbCircle
 10
149.1481831836628942
 20
272.493025869860503
 30
0.0
 40
1.6000000000000032
  0
CIRCLE
  5
11C
100
AcDbEntity
  8
0
 62
256
370
-1
 48
1.0
  6
BYLAYER
100
AcDbCircle
 10
106.6645564132685564
 20
282.3011439347949931
 30
0.0
 40
1.6000000000000032
  0
LINE
  5
11D
100
AcDbEntity
  8
0
 62
256
370
-1
 48
1.0
  6
BYLAYER
100
AcDbLine
 10
13.0766668131315988
 20
158.6709019289937146
 30
0.0
 11
11.4229086787019618
 21
160.4443404063048888
 31
0.0
  0
CIRCLE
  5
11E
100
AcDbEntity
  8
0
 62
256
370
-1
 48
1.0
  6
BYLAYER
100
AcDbCircle
 10
10.348268121706921
 20
157.7844254314867953
 30
0.0
 40
2.75
  0
CIRCLE
  5
11F
100
AcDbEntity
  8
0
 62
256
370
-1
 48
1.0
  6
BYLAYER
100
AcDbCircle
 10
78.5541726566736997
 20
173.5309992355570898
 30
0.0
 40
2.75
  0
CIRCLE
  5
120
100
AcDbEntity
  8
0
 62
256
370
-1
 48
1.0
  6
BYLAYER
100
AcDbCircle
 10
114.6558005550268149
 20
131.185164914067002
 30
0.0
 40
2.75
  0
CIRCLE
  5
121
100
AcDbEntity
  8
0
 62
256
370
-1
 48
1.0
  6
BYLAYER
100
AcDbCircle
 10
114.6558005550268433
 20
82.3409654690935042
 30
0.0
 40
2.75
  0
CIRCLE
  5
122
100
AcDbEntity
  8
0
 62
256
370
-1
 48
1.0
  6
BYLAYER
100
AcDbCircle
 10
114.6558005550268149
 20
38.7398448006764937
 30
0.0
 40
2.75
  0
CIRCLE
  5
123
100
AcDbEntity
  8
0
 62
256
370
-1
 48
1.0
  6
BYLAYER
100
AcDbCircle
 10
19.1095911497749569
 20
18.7893676296292398
 30
0.0
 40
2.75
  0
CIRCLE
  5
124
100
AcDbEntity
  8
0
 62
256
370
-1
 48
1.0
  6
BYLAYER
100
AcDbCircle
 10
23.5410102150266809
 20
98.3523094273677145
 30
0.0
 40
2.75
  0
CIRCLE
  5
125
100
AcDbEntity
  8
0
 62
256
370
-1
 48
1.0
  6
BYLAYER
100
AcDbCircle
 10
197.9933218447611125
 20
136.8535272373686666
 30
0.0
 40
2.75
  0
CIRCLE
  5
126
100
AcDbEntity
  8
0
 62
256
370
-1
 48
1.0
  6
BYLAYER
100
AcDbCircle
 10
267.993321844761283
 20
136.8535272373683256
 30
0.0
 40
2.75
  0
CIRCLE
  5
127
100
AcDbEntity
  8
0
 62
256
370
-1
 48
1.0
  6
BYLAYER
100
AcDbCircle
 10
268.5080260336119977
 20
197.7301232022044815
 30
0.0
 40
2.75
  0
CIRCLE
  5
128
100
AcDbEntity
  8
0
 62
256
370
-1
 48
1.0
  6
BYLAYER
100
AcDbCircle
 10
290.7236357594125593
 20
274.2570195652029952
 30
0.0
 40
2.75
  0
CIRCLE
  5
129
100
AcDbEntity
  8
0
 62
256
370
-1
 48
1.0
  6
BYLAYER
100
AcDbCircle
 10
193.1383886369434322
 20
276.3110923758245008
 30
0.0
 40
2.75
  0
CIRCLE
  5
12A
100
AcDbEntity
  8
0
 62
256
370
-1
 48
1.0
  6
BYLAYER
100
AcDbCircle
 10
183.3302705720089421
 20
233.8274656054300635
 30
0.0
 40
2.75
  0
CIRCLE
  5
12B
100
AcDbEntity
  8
0
 62
256
370
-1
 48
1.0
  6
BYLAYER
100
AcDbCircle
 10
172.3427164082800971
 20
186.2351398278482861
 30
0.0
 40
2.75
  0
ENDSEC
  0
SECTION
  2
OBJECTS
  0
DICTIONARY
  5
C
100
AcDbDictionary
280
0
281
1
  3
ACAD_GROUP
350
D
  3
ACAD_LAYOUT
350
1A
  3
ACAD_MLINESTYLE
350
17
  3
ACAD_PLOTSETTINGS
350
19
  3
ACAD_PLOTSTYLENAME
350
E
  3
AcDbVariableDictionary
350
12C
  3
QCAD_OBJECTS
350
12D
  0
DICTIONARY
  5
D
100
AcDbDictionary
280
0
281
1
  0
ACDBDICTIONARYWDFLT
  5
E
100
AcDbDictionary
281
1
  3
Normal
350
F
100
AcDbDictionaryWithDefault
340
F
  0
ACDBPLACEHOLDER
  5
F
  0
DICTIONARY
  5
17
100
AcDbDictionary
280
0
281
1
  3
Standard
350
18
  0
MLINESTYLE
  5
18
100
AcDbMlineStyle
  2
STANDARD
 70
0
  3

 62
256
 51
90.0
 52
90.0
 71
2
 49
0.5
 62
256
  6
BYLAYER
 49
-0.5
 62
256
  6
BYLAYER
  0
DICTIONARY
  5
19
100
AcDbDictionary
280
0
281
1
  0
DICTIONARY
  5
1A
100
AcDbDictionary
281
1
  3
Layout1
350
1E
  3
Layout2
350
26
  3
Model
350
22
  0
LAYOUT
  5
1E
100
AcDbPlotSettings
  1

  2
none_device
  4

  6

 40
0.0
 41
0.0
 42
0.0
 43
0.0
 44
0.0
 45
0.0
 46
0.0
 47
0.0
 48
0.0
 49
0.0
140
0.0
141
0.0
142
1.0
143
1.0
 70
688
 72
0
 73
0
 74
5
  7

 75
16
147
1.0
148
0.0
149
0.0
100
AcDbLayout
  1
Layout1
 70
1
 71
1
 10
0.0
 20
0.0
 11
420.0
 21
297.0
 12
0.0
 22
0.0
 32
0.0
 14
100000000000000000000.0
 24
100000000000000000000.0
 34
100000000000000000000.0
 15
-100000000000000000000.0
 25
-100000000000000000000.0
 35
-100000000000000000000.0
146
0.0
 13
0.0
 23
0.0
 33
0.0
 16
1.0
 26
0.0
 36
0.0
 17
0.0
 27
1.0
 37
0.0
 76
0
330
1B
  0
LAYOUT
  5
22
100
AcDbPlotSettings
  1

  2
none_device
  4

  6

 40
0.0
 41
0.0
 42
0.0
 43
0.0
 44
0.0
 45
0.0
 46
0.0
 47
0.0
 48
0.0
 49
0.0
140
0.0
141
0.0
142
1.0
143
1.0
 70
1712
 72
0
 73
0
 74
0
  7

 75
0
147
1.0
148
0.0
149
0.0
100
AcDbLayout
  1
Model
 70
1
 71
0
 10
0.0
 20
0.0
 11
12.0
 21
9.0
 12
0.0
 22
0.0
 32
0.0
 14
0.0
 24
0.0
 34
0.0
 15
0.0
 25
0.0
 35
0.0
146
0.0
 13
0.0
 23
0.0
 33
0.0
 16
1.0
 26
0.0
 36
0.0
 17
0.0
 27
1.0
 37
0.0
 76
0
330
1F
  0
LAYOUT
  5
26
100
AcDbPlotSettings
  1

  2
none_device
  4

  6

 40
0.0
 41
0.0
 42
0.0
 43
0.0
 44
0.0
 45
0.0
 46
0.0
 47
0.0
 48
0.0
 49
0.0
140
0.0
141
0.0
142
1.0
143
1.0
 70
688
 72
0
 73
0
 74
5
  7

 75
16
147
1.0
148
0.0
149
0.0
100
AcDbLayout
  1
Layout2
 70
1
 71
2
 10
0.0
 20
0.0
 11
12.0
 21
9.0
 12
0.0
 22
0.0
 32
0.0
 14
0.0
 24
0.0
 34
0.0
 15
0.0
 25
0.0
 35
0.0
146
0.0
 13
0.0
 23
0.0
 33
0.0
 16
1.0
 26
0.0
 36
0.0
 17
0.0
 27
1.0
 37
0.0
 76
0
330
23
  0
DICTIONARY
  5
12C
100
AcDbDictionary
281
1
  3
DIMASSOC
350
12F
  3
HIDETEXT
350
12E
  0
DICTIONARYVAR
  5
12E
100
DictionaryVariables
280
0
  1
2
  0
DICTIONARYVAR
  5
12F
100
DictionaryVariables
280
0
  1
1
  0
DICTIONARY
  5
12D
100
AcDbDictionary
281
1
  3
ColorSettings/BackgroundColor
350
130
  3
ColorSettings/ColorMode
350
131
  3
Grid/DisplayGrid00
350
132
  3
Grid/DisplayGrid01
350
133
  3
Grid/DisplayGrid02
350
134
  3
Grid/DisplayGrid03
350
135
  3
Grid/GridSpacingX00
350
136
  3
Grid/GridSpacingX01
350
137
  3
Grid/GridSpacingX02
350
138
  3
Grid/GridSpacingX03
350
139
  3
Grid/GridSpacingY00
350
13A
  3
Grid/GridSpacingY01
350
13B
  3
Grid/GridSpacingY02
350
13C
  3
Grid/GridSpacingY03
350
13D
  3
Grid/IsometricGrid00
350
13E
  3
Grid/IsometricGrid01
350
13F
  3
Grid/IsometricGrid02
350
140
  3
Grid/IsometricGrid03
350
141
  3
Grid/IsometricProjection00
350
142
  3
Grid/IsometricProjection01
350
143
  3
Grid/IsometricProjection02
350
144
  3
Grid/IsometricProjection03
350
145
  3
Grid/MetaGridSpacingX00
350
146
  3
Grid/MetaGridSpacingX01
350
147
  3
Grid/MetaGridSpacingX02
350
148
  3
Grid/MetaGridSpacingX03
350
149
  3
Grid/MetaGridSpacingY00
350
14A
  3
Grid/MetaGridSpacingY01
350
14B
  3
Grid/MetaGridSpacingY02
350
14C
  3
Grid/MetaGridSpacingY03
350
14D
  3
MultiPageSettings/Columns
350
14E
  3
MultiPageSettings/GlueMarginsBottom
350
14F
  3
MultiPageSettings/GlueMarginsLeft
350
150
  3
MultiPageSettings/GlueMarginsRight
350
151
  3
MultiPageSettings/GlueMarginsTop
350
152
  3
MultiPageSettings/PrintCropMarks
350
153
  3
MultiPageSettings/Rows
350
154
  3
PageSettings/OffsetX
350
155
  3
PageSettings/OffsetY
350
156
  3
PageSettings/PageOrientation
350
157
  3
PageSettings/PaperHeight
350
158
  3
PageSettings/PaperWidth
350
159
  3
PageSettings/Scale
350
15A
  3
PageSettings/ShowPaperBorders
350
15B
  3
PageTagSettings/EnablePageTags
350
15C
  3
PageTagSettings/TagAlignment
350
15D
  3
PageTagSettings/TagFont
350
15E
  3
PageTagSettings/TagPosition
350
15F
  3
QCADVersion
350
160
  3
UnitSettings/PaperUnit
350
161
  3
ViewportCenter
350
162
  3
ViewportHeight
350
163
  3
ViewportWidth
350
164
  0
XRECORD
  5
130
330
12D
100
AcDbXrecord
280
1
1000
White
  0
XRECORD
  5
131
330
12D
100
AcDbXrecord
280
1
1000
FullColor
  0
XRECORD
  5
132
330
12D
100
AcDbXrecord
280
1
290
1
  0
XRECORD
  5
133
330
12D
100
AcDbXrecord
280
1
290
1
  0
XRECORD
  5
134
330
12D
100
AcDbXrecord
280
1
290
1
  0
XRECORD
  5
135
330
12D
100
AcDbXrecord
280
1
290
1
  0
XRECORD
  5
136
330
12D
100
AcDbXrecord
280
1
1000
auto
  0
XRECORD
  5
137
330
12D
100
AcDbXrecord
280
1
1000
auto
  0
XRECORD
  5
138
330
12D
100
AcDbXrecord
280
1
1000
auto
  0
XRECORD
  5
139
330
12D
100
AcDbXrecord
280
1
1000
auto
  0
XRECORD
  5
13A
330
12D
100
AcDbXrecord
280
1
1000
auto
  0
XRECORD
  5
13B
330
12D
100
AcDbXrecord
280
1
1000
auto
  0
XRECORD
  5
13C
330
12D
100
AcDbXrecord
280
1
1000
auto
  0
XRECORD
  5
13D
330
12D
100
AcDbXrecord
280
1
1000
auto
  0
XRECORD
  5
13E
330
12D
100
AcDbXrecord
280
1
290
0
  0
XRECORD
  5
13F
330
12D
100
AcDbXrecord
280
1
290
0
  0
XRECORD
  5
140
330
12D
100
AcDbXrecord
280
1
290
0
  0
XRECORD
  5
141
330
12D
100
AcDbXrecord
280
1
290
0
  0
XRECORD
  5
142
330
12D
100
AcDbXrecord
280
1
 90
65537
  0
XRECORD
  5
143
330
12D
100
AcDbXrecord
280
1
 90
65537
  0
XRECORD
  5
144
330
12D
100
AcDbXrecord
280
1
 90
65537
  0
XRECORD
  5
145
330
12D
100
AcDbXrecord
280
1
 90
65537
  0
XRECORD
  5
146
330
12D
100
AcDbXrecord
280
1
1000
auto
  0
XRECORD
  5
147
330
12D
100
AcDbXrecord
280
1
1000
auto
  0
XRECORD
  5
148
330
12D
100
AcDbXrecord
280
1
1000
auto
  0
XRECORD
  5
149
330
12D
100
AcDbXrecord
280
1
1000
auto
  0
XRECORD
  5
14A
330
12D
100
AcDbXrecord
280
1
1000
auto
  0
XRECORD
  5
14B
330
12D
100
AcDbXrecord
280
1
1000
auto
  0
XRECORD
  5
14C
330
12D
100
AcDbXrecord
280
1
1000
auto
  0
XRECORD
  5
14D
330
12D
100
AcDbXrecord
280
1
1000
auto
  0
XRECORD
  5
14E
330
12D
100
AcDbXrecord
280
1
 90
1
  0
XRECORD
  5
14F
330
12D
100
AcDbXrecord
280
1
 40
10.0
  0
XRECORD
  5
150
330
12D
100
AcDbXrecord
280
1
 40
10.0
  0
XRECORD
  5
151
330
12D
100
AcDbXrecord
280
1
 40
10.0
  0
XRECORD
  5
152
330
12D
100
AcDbXrecord
280
1
 40
10.0
  0
XRECORD
  5
153
330
12D
100
AcDbXrecord
280
1
290
0
  0
XRECORD
  5
154
330
12D
100
AcDbXrecord
280
1
 90
1
  0
XRECORD
  5
155
330
12D
100
AcDbXrecord
280
1
 40
0.0
  0
XRECORD
  5
156
330
12D
100
AcDbXrecord
280
1
 40
0.0
  0
XRECORD
  5
157
330
12D
100
AcDbXrecord
280
1
1000
Portrait
  0
XRECORD
  5
158
330
12D
100
AcDbXrecord
280
1
 40
297.0
  0
XRECORD
  5
159
330
12D
100
AcDbXrecord
280
1
 40
210.0
  0
XRECORD
  5
15A
330
12D
100
AcDbXrecord
280
1
1000
1:1
  0
XRECORD
  5
15B
330
12D
100
AcDbXrecord
280
1
290
1
  0
XRECORD
  5
15C
330
12D
100
AcDbXrecord
280
1
290
0
  0
XRECORD
  5
15D
330
12D
100
AcDbXrecord
280
1
1000
Inside
  0
XRECORD
  5
15E
330
12D
100
AcDbXrecord
280
1
1000
Arial,10,-1,5,50,0,0,0,0,0
  0
XRECORD
  5
15F
330
12D
100
AcDbXrecord
280
1
1000
TopLeft
  0
XRECORD
  5
160
330
12D
100
AcDbXrecord
280
1
1000
3.27.1
  0
XRECORD
  5
161
330
12D
100
AcDbXrecord
280
1
 90
4
  0
XRECORD
  5
163
330
12D
100
AcDbXrecord
280
1
 40
40.0703547921370387
  0
XRECORD
  5
164
330
12D
100
AcDbXrecord
280
1
 40
90.5325818160810627
  0
ENDSEC
  0
EOF
